<?xml version="1.0" encoding="UTF-8"?>
<svg width="1024" height="1024" viewBox="0 0 1024 1024" fill="none" xmlns="http://www.w3.org/2000/svg">
  <defs>
    <filter id="card-shadow" x="0" y="0" width="1024" height="1024" filterUnits="userSpaceOnUse" color-interpolation-filters="sRGB">
      <feDropShadow dx="0" dy="18" stdDeviation="18" flood-color="#2F241D" flood-opacity="0.12"/>
    </filter>
  </defs>
  <rect width="1024" height="1024" rx="84" fill="#FFFDFA"/>
  <g filter="url(#card-shadow)">
    <rect x="64" y="64" width="896" height="896" rx="72" fill="#FFFDFA" stroke="#E4DDD5" stroke-width="6"/>
  </g>
  <rect x="132" y="132" width="761" height="761" rx="38" fill="#FFFCF7"/>
  <rect x="148" y="148" width="729" height="729" rx="28" fill="#FFFFFF" stroke="#E8E0D7" stroke-width="2"/>
  <rect x="397" y="166" width="21" height="21" rx="2.9400000000000004" fill="#2B2622"/>
  <rect x="460" y="166" width="21" height="21" rx="2.9400000000000004" fill="#2B2622"/>
  <rect x="481" y="166" width="21" height="21" rx="2.9400000000000004" fill="#2B2622"/>
  <rect x="502" y="166" width="21" height="21" rx="2.9400000000000004" fill="#2B2622"/>
  <rect x="544" y="166" width="21" height="21" rx="2.9400000000000004" fill="#2B2622"/>
  <rect x="565" y="166" width="21" height="21" rx="2.9400000000000004" fill="#2B2622"/>
  <rect x="607" y="166" width="21" height="21" rx="2.9400000000000004" fill="#2B2622"/>
  <rect x="628" y="166" width="21" height="21" rx="2.9400000000000004" fill="#2B2622"/>
  <rect x="670" y="166" width="21" height="21" rx="2.9400000000000004" fill="#2B2622"/>
  <rect x="334" y="187" width="21" height="21" rx="2.9400000000000004" fill="#2B2622"/>
  <rect x="376" y="187" width="21" height="21" rx="2.9400000000000004" fill="#2B2622"/>
  <rect x="397" y="187" width="21" height="21" rx="2.9400000000000004" fill="#2B2622"/>
  <rect x="439" y="187" width="21" height="21" rx="2.9400000000000004" fill="#2B2622"/>
  <rect x="460" y="187" width="21" height="21" rx="2.9400000000000004" fill="#2B2622"/>
  <rect x="481" y="187" width="21" height="21" rx="2.9400000000000004" fill="#2B2622"/>
  <rect x="523" y="187" width="21" height="21" rx="2.9400000000000004" fill="#2B2622"/>
  <rect x="334" y="208" width="21" height="21" rx="2.9400000000000004" fill="#2B2622"/>
  <rect x="376" y="208" width="21" height="21" rx="2.9400000000000004" fill="#2B2622"/>
  <rect x="397" y="208" width="21" height="21" rx="2.9400000000000004" fill="#2B2622"/>
  <rect x="439" y="208" width="21" height="21" rx="2.9400000000000004" fill="#2B2622"/>
  <rect x="481" y="208" width="21" height="21" rx="2.9400000000000004" fill="#2B2622"/>
  <rect x="523" y="208" width="21" height="21" rx="2.9400000000000004" fill="#2B2622"/>
  <rect x="544" y="208" width="21" height="21" rx="2.9400000000000004" fill="#2B2622"/>
  <rect x="565" y="208" width="21" height="21" rx="2.9400000000000004" fill="#2B2622"/>
  <rect x="586" y="208" width="21" height="21" rx="2.9400000000000004" fill="#2B2622"/>
  <rect x="607" y="208" width="21" height="21" rx="2.9400000000000004" fill="#2B2622"/>
  <rect x="670" y="208" width="21" height="21" rx="2.9400000000000004" fill="#2B2622"/>
  <rect x="334" y="229" width="21" height="21" rx="2.9400000000000004" fill="#2B2622"/>
  <rect x="376" y="229" width="21" height="21" rx="2.9400000000000004" fill="#2B2622"/>
  <rect x="418" y="229" width="21" height="21" rx="2.9400000000000004" fill="#2B2622"/>
  <rect x="481" y="229" width="21" height="21" rx="2.9400000000000004" fill="#2B2622"/>
  <rect x="502" y="229" width="21" height="21" rx="2.9400000000000004" fill="#2B2622"/>
  <rect x="523" y="229" width="21" height="21" rx="2.9400000000000004" fill="#2B2622"/>
  <rect x="586" y="229" width="21" height="21" rx="2.9400000000000004" fill="#2B2622"/>
  <rect x="607" y="229" width="21" height="21" rx="2.9400000000000004" fill="#2B2622"/>
  <rect x="628" y="229" width="21" height="21" rx="2.9400000000000004" fill="#2B2622"/>
  <rect x="649" y="229" width="21" height="21" rx="2.9400000000000004" fill="#2B2622"/>
  <rect x="334" y="250" width="21" height="21" rx="2.9400000000000004" fill="#2B2622"/>
  <rect x="481" y="250" width="21" height="21" rx="2.9400000000000004" fill="#2B2622"/>
  <rect x="523" y="250" width="21" height="21" rx="2.9400000000000004" fill="#2B2622"/>
  <rect x="565" y="250" width="21" height="21" rx="2.9400000000000004" fill="#2B2622"/>
  <rect x="586" y="250" width="21" height="21" rx="2.9400000000000004" fill="#2B2622"/>
  <rect x="607" y="250" width="21" height="21" rx="2.9400000000000004" fill="#2B2622"/>
  <rect x="628" y="250" width="21" height="21" rx="2.9400000000000004" fill="#2B2622"/>
  <rect x="649" y="250" width="21" height="21" rx="2.9400000000000004" fill="#2B2622"/>
  <rect x="334" y="271" width="21" height="21" rx="2.9400000000000004" fill="#2B2622"/>
  <rect x="355" y="271" width="21" height="21" rx="2.9400000000000004" fill="#2B2622"/>
  <rect x="418" y="271" width="21" height="21" rx="2.9400000000000004" fill="#2B2622"/>
  <rect x="460" y="271" width="21" height="21" rx="2.9400000000000004" fill="#2B2622"/>
  <rect x="544" y="271" width="21" height="21" rx="2.9400000000000004" fill="#2B2622"/>
  <rect x="586" y="271" width="21" height="21" rx="2.9400000000000004" fill="#2B2622"/>
  <rect x="607" y="271" width="21" height="21" rx="2.9400000000000004" fill="#2B2622"/>
  <rect x="649" y="271" width="21" height="21" rx="2.9400000000000004" fill="#2B2622"/>
  <rect x="334" y="292" width="21" height="21" rx="2.9400000000000004" fill="#2B2622"/>
  <rect x="376" y="292" width="21" height="21" rx="2.9400000000000004" fill="#2B2622"/>
  <rect x="418" y="292" width="21" height="21" rx="2.9400000000000004" fill="#2B2622"/>
  <rect x="460" y="292" width="21" height="21" rx="2.9400000000000004" fill="#2B2622"/>
  <rect x="502" y="292" width="21" height="21" rx="2.9400000000000004" fill="#2B2622"/>
  <rect x="544" y="292" width="21" height="21" rx="2.9400000000000004" fill="#2B2622"/>
  <rect x="586" y="292" width="21" height="21" rx="2.9400000000000004" fill="#2B2622"/>
  <rect x="628" y="292" width="21" height="21" rx="2.9400000000000004" fill="#2B2622"/>
  <rect x="670" y="292" width="21" height="21" rx="2.9400000000000004" fill="#2B2622"/>
  <rect x="376" y="313" width="21" height="21" rx="2.9400000000000004" fill="#2B2622"/>
  <rect x="418" y="313" width="21" height="21" rx="2.9400000000000004" fill="#2B2622"/>
  <rect x="460" y="313" width="21" height="21" rx="2.9400000000000004" fill="#2B2622"/>
  <rect x="481" y="313" width="21" height="21" rx="2.9400000000000004" fill="#2B2622"/>
  <rect x="502" y="313" width="21" height="21" rx="2.9400000000000004" fill="#2B2622"/>
  <rect x="523" y="313" width="21" height="21" rx="2.9400000000000004" fill="#2B2622"/>
  <rect x="544" y="313" width="21" height="21" rx="2.9400000000000004" fill="#2B2622"/>
  <rect x="586" y="313" width="21" height="21" rx="2.9400000000000004" fill="#2B2622"/>
  <rect x="649" y="313" width="21" height="21" rx="2.9400000000000004" fill="#2B2622"/>
  <rect x="670" y="313" width="21" height="21" rx="2.9400000000000004" fill="#2B2622"/>
  <rect x="208" y="334" width="21" height="21" rx="2.9400000000000004" fill="#2B2622"/>
  <rect x="271" y="334" width="21" height="21" rx="2.9400000000000004" fill="#2B2622"/>
  <rect x="292" y="334" width="21" height="21" rx="2.9400000000000004" fill="#2B2622"/>
  <rect x="313" y="334" width="21" height="21" rx="2.9400000000000004" fill="#2B2622"/>
  <rect x="334" y="334" width="21" height="21" rx="2.9400000000000004" fill="#2B2622"/>
  <rect x="355" y="334" width="21" height="21" rx="2.9400000000000004" fill="#2B2622"/>
  <rect x="376" y="334" width="21" height="21" rx="2.9400000000000004" fill="#2B2622"/>
  <rect x="397" y="334" width="21" height="21" rx="2.9400000000000004" fill="#2B2622"/>
  <rect x="418" y="334" width="21" height="21" rx="2.9400000000000004" fill="#2B2622"/>
  <rect x="460" y="334" width="21" height="21" rx="2.9400000000000004" fill="#2B2622"/>
  <rect x="481" y="334" width="21" height="21" rx="2.9400000000000004" fill="#2B2622"/>
  <rect x="523" y="334" width="21" height="21" rx="2.9400000000000004" fill="#2B2622"/>
  <rect x="544" y="334" width="21" height="21" rx="2.9400000000000004" fill="#2B2622"/>
  <rect x="586" y="334" width="21" height="21" rx="2.9400000000000004" fill="#2B2622"/>
  <rect x="691" y="334" width="21" height="21" rx="2.9400000000000004" fill="#2B2622"/>
  <rect x="733" y="334" width="21" height="21" rx="2.9400000000000004" fill="#2B2622"/>
  <rect x="754" y="334" width="21" height="21" rx="2.9400000000000004" fill="#2B2622"/>
  <rect x="775" y="334" width="21" height="21" rx="2.9400000000000004" fill="#2B2622"/>
  <rect x="796" y="334" width="21" height="21" rx="2.9400000000000004" fill="#2B2622"/>
  <rect x="817" y="334" width="21" height="21" rx="2.9400000000000004" fill="#2B2622"/>
  <rect x="229" y="355" width="21" height="21" rx="2.9400000000000004" fill="#2B2622"/>
  <rect x="250" y="355" width="21" height="21" rx="2.9400000000000004" fill="#2B2622"/>
  <rect x="271" y="355" width="21" height="21" rx="2.9400000000000004" fill="#2B2622"/>
  <rect x="439" y="355" width="21" height="21" rx="2.9400000000000004" fill="#2B2622"/>
  <rect x="481" y="355" width="21" height="21" rx="2.9400000000000004" fill="#2B2622"/>
  <rect x="502" y="355" width="21" height="21" rx="2.9400000000000004" fill="#2B2622"/>
  <rect x="523" y="355" width="21" height="21" rx="2.9400000000000004" fill="#2B2622"/>
  <rect x="649" y="355" width="21" height="21" rx="2.9400000000000004" fill="#2B2622"/>
  <rect x="670" y="355" width="21" height="21" rx="2.9400000000000004" fill="#2B2622"/>
  <rect x="691" y="355" width="21" height="21" rx="2.9400000000000004" fill="#2B2622"/>
  <rect x="712" y="355" width="21" height="21" rx="2.9400000000000004" fill="#2B2622"/>
  <rect x="733" y="355" width="21" height="21" rx="2.9400000000000004" fill="#2B2622"/>
  <rect x="775" y="355" width="21" height="21" rx="2.9400000000000004" fill="#2B2622"/>
  <rect x="796" y="355" width="21" height="21" rx="2.9400000000000004" fill="#2B2622"/>
  <rect x="838" y="355" width="21" height="21" rx="2.9400000000000004" fill="#2B2622"/>
  <rect x="166" y="376" width="21" height="21" rx="2.9400000000000004" fill="#2B2622"/>
  <rect x="187" y="376" width="21" height="21" rx="2.9400000000000004" fill="#2B2622"/>
  <rect x="271" y="376" width="21" height="21" rx="2.9400000000000004" fill="#2B2622"/>
  <rect x="292" y="376" width="21" height="21" rx="2.9400000000000004" fill="#2B2622"/>
  <rect x="313" y="376" width="21" height="21" rx="2.9400000000000004" fill="#2B2622"/>
  <rect x="334" y="376" width="21" height="21" rx="2.9400000000000004" fill="#2B2622"/>
  <rect x="355" y="376" width="21" height="21" rx="2.9400000000000004" fill="#2B2622"/>
  <rect x="376" y="376" width="21" height="21" rx="2.9400000000000004" fill="#2B2622"/>
  <rect x="418" y="376" width="21" height="21" rx="2.9400000000000004" fill="#2B2622"/>
  <rect x="481" y="376" width="21" height="21" rx="2.9400000000000004" fill="#2B2622"/>
  <rect x="565" y="376" width="21" height="21" rx="2.9400000000000004" fill="#2B2622"/>
  <rect x="586" y="376" width="21" height="21" rx="2.9400000000000004" fill="#2B2622"/>
  <rect x="607" y="376" width="21" height="21" rx="2.9400000000000004" fill="#2B2622"/>
  <rect x="628" y="376" width="21" height="21" rx="2.9400000000000004" fill="#2B2622"/>
  <rect x="649" y="376" width="21" height="21" rx="2.9400000000000004" fill="#2B2622"/>
  <rect x="670" y="376" width="21" height="21" rx="2.9400000000000004" fill="#2B2622"/>
  <rect x="733" y="376" width="21" height="21" rx="2.9400000000000004" fill="#2B2622"/>
  <rect x="754" y="376" width="21" height="21" rx="2.9400000000000004" fill="#2B2622"/>
  <rect x="775" y="376" width="21" height="21" rx="2.9400000000000004" fill="#2B2622"/>
  <rect x="796" y="376" width="21" height="21" rx="2.9400000000000004" fill="#2B2622"/>
  <rect x="838" y="376" width="21" height="21" rx="2.9400000000000004" fill="#2B2622"/>
  <rect x="187" y="397" width="21" height="21" rx="2.9400000000000004" fill="#2B2622"/>
  <rect x="208" y="397" width="21" height="21" rx="2.9400000000000004" fill="#2B2622"/>
  <rect x="229" y="397" width="21" height="21" rx="2.9400000000000004" fill="#2B2622"/>
  <rect x="250" y="397" width="21" height="21" rx="2.9400000000000004" fill="#2B2622"/>
  <rect x="313" y="397" width="21" height="21" rx="2.9400000000000004" fill="#2B2622"/>
  <rect x="334" y="397" width="21" height="21" rx="2.9400000000000004" fill="#2B2622"/>
  <rect x="376" y="397" width="21" height="21" rx="2.9400000000000004" fill="#2B2622"/>
  <rect x="397" y="397" width="21" height="21" rx="2.9400000000000004" fill="#2B2622"/>
  <rect x="439" y="397" width="21" height="21" rx="2.9400000000000004" fill="#2B2622"/>
  <rect x="460" y="397" width="21" height="21" rx="2.9400000000000004" fill="#2B2622"/>
  <rect x="502" y="397" width="21" height="21" rx="2.9400000000000004" fill="#2B2622"/>
  <rect x="544" y="397" width="21" height="21" rx="2.9400000000000004" fill="#2B2622"/>
  <rect x="586" y="397" width="21" height="21" rx="2.9400000000000004" fill="#2B2622"/>
  <rect x="628" y="397" width="21" height="21" rx="2.9400000000000004" fill="#2B2622"/>
  <rect x="670" y="397" width="21" height="21" rx="2.9400000000000004" fill="#2B2622"/>
  <rect x="712" y="397" width="21" height="21" rx="2.9400000000000004" fill="#2B2622"/>
  <rect x="733" y="397" width="21" height="21" rx="2.9400000000000004" fill="#2B2622"/>
  <rect x="775" y="397" width="21" height="21" rx="2.9400000000000004" fill="#2B2622"/>
  <rect x="838" y="397" width="21" height="21" rx="2.9400000000000004" fill="#2B2622"/>
  <rect x="208" y="418" width="21" height="21" rx="2.9400000000000004" fill="#2B2622"/>
  <rect x="229" y="418" width="21" height="21" rx="2.9400000000000004" fill="#2B2622"/>
  <rect x="292" y="418" width="21" height="21" rx="2.9400000000000004" fill="#2B2622"/>
  <rect x="313" y="418" width="21" height="21" rx="2.9400000000000004" fill="#2B2622"/>
  <rect x="376" y="418" width="21" height="21" rx="2.9400000000000004" fill="#2B2622"/>
  <rect x="439" y="418" width="21" height="21" rx="2.9400000000000004" fill="#2B2622"/>
  <rect x="481" y="418" width="21" height="21" rx="2.9400000000000004" fill="#2B2622"/>
  <rect x="523" y="418" width="21" height="21" rx="2.9400000000000004" fill="#2B2622"/>
  <rect x="565" y="418" width="21" height="21" rx="2.9400000000000004" fill="#2B2622"/>
  <rect x="586" y="418" width="21" height="21" rx="2.9400000000000004" fill="#2B2622"/>
  <rect x="607" y="418" width="21" height="21" rx="2.9400000000000004" fill="#2B2622"/>
  <rect x="628" y="418" width="21" height="21" rx="2.9400000000000004" fill="#2B2622"/>
  <rect x="649" y="418" width="21" height="21" rx="2.9400000000000004" fill="#2B2622"/>
  <rect x="670" y="418" width="21" height="21" rx="2.9400000000000004" fill="#2B2622"/>
  <rect x="712" y="418" width="21" height="21" rx="2.9400000000000004" fill="#2B2622"/>
  <rect x="775" y="418" width="21" height="21" rx="2.9400000000000004" fill="#2B2622"/>
  <rect x="817" y="418" width="21" height="21" rx="2.9400000000000004" fill="#2B2622"/>
  <rect x="838" y="418" width="21" height="21" rx="2.9400000000000004" fill="#2B2622"/>
  <rect x="208" y="439" width="21" height="21" rx="2.9400000000000004" fill="#2B2622"/>
  <rect x="229" y="439" width="21" height="21" rx="2.9400000000000004" fill="#2B2622"/>
  <rect x="250" y="439" width="21" height="21" rx="2.9400000000000004" fill="#2B2622"/>
  <rect x="313" y="439" width="21" height="21" rx="2.9400000000000004" fill="#2B2622"/>
  <rect x="376" y="439" width="21" height="21" rx="2.9400000000000004" fill="#2B2622"/>
  <rect x="397" y="439" width="21" height="21" rx="2.9400000000000004" fill="#2B2622"/>
  <rect x="439" y="439" width="21" height="21" rx="2.9400000000000004" fill="#2B2622"/>
  <rect x="481" y="439" width="21" height="21" rx="2.9400000000000004" fill="#2B2622"/>
  <rect x="544" y="439" width="21" height="21" rx="2.9400000000000004" fill="#2B2622"/>
  <rect x="586" y="439" width="21" height="21" rx="2.9400000000000004" fill="#2B2622"/>
  <rect x="607" y="439" width="21" height="21" rx="2.9400000000000004" fill="#2B2622"/>
  <rect x="628" y="439" width="21" height="21" rx="2.9400000000000004" fill="#2B2622"/>
  <rect x="649" y="439" width="21" height="21" rx="2.9400000000000004" fill="#2B2622"/>
  <rect x="670" y="439" width="21" height="21" rx="2.9400000000000004" fill="#2B2622"/>
  <rect x="712" y="439" width="21" height="21" rx="2.9400000000000004" fill="#2B2622"/>
  <rect x="733" y="439" width="21" height="21" rx="2.9400000000000004" fill="#2B2622"/>
  <rect x="775" y="439" width="21" height="21" rx="2.9400000000000004" fill="#2B2622"/>
  <rect x="838" y="439" width="21" height="21" rx="2.9400000000000004" fill="#2B2622"/>
  <rect x="166" y="460" width="21" height="21" rx="2.9400000000000004" fill="#2B2622"/>
  <rect x="208" y="460" width="21" height="21" rx="2.9400000000000004" fill="#2B2622"/>
  <rect x="229" y="460" width="21" height="21" rx="2.9400000000000004" fill="#2B2622"/>
  <rect x="271" y="460" width="21" height="21" rx="2.9400000000000004" fill="#2B2622"/>
  <rect x="292" y="460" width="21" height="21" rx="2.9400000000000004" fill="#2B2622"/>
  <rect x="376" y="460" width="21" height="21" rx="2.9400000000000004" fill="#2B2622"/>
  <rect x="397" y="460" width="21" height="21" rx="2.9400000000000004" fill="#2B2622"/>
  <rect x="523" y="460" width="21" height="21" rx="2.9400000000000004" fill="#2B2622"/>
  <rect x="544" y="460" width="21" height="21" rx="2.9400000000000004" fill="#2B2622"/>
  <rect x="586" y="460" width="21" height="21" rx="2.9400000000000004" fill="#2B2622"/>
  <rect x="649" y="460" width="21" height="21" rx="2.9400000000000004" fill="#2B2622"/>
  <rect x="670" y="460" width="21" height="21" rx="2.9400000000000004" fill="#2B2622"/>
  <rect x="691" y="460" width="21" height="21" rx="2.9400000000000004" fill="#2B2622"/>
  <rect x="712" y="460" width="21" height="21" rx="2.9400000000000004" fill="#2B2622"/>
  <rect x="754" y="460" width="21" height="21" rx="2.9400000000000004" fill="#2B2622"/>
  <rect x="775" y="460" width="21" height="21" rx="2.9400000000000004" fill="#2B2622"/>
  <rect x="796" y="460" width="21" height="21" rx="2.9400000000000004" fill="#2B2622"/>
  <rect x="838" y="460" width="21" height="21" rx="2.9400000000000004" fill="#2B2622"/>
  <rect x="166" y="481" width="21" height="21" rx="2.9400000000000004" fill="#2B2622"/>
  <rect x="187" y="481" width="21" height="21" rx="2.9400000000000004" fill="#2B2622"/>
  <rect x="250" y="481" width="21" height="21" rx="2.9400000000000004" fill="#2B2622"/>
  <rect x="271" y="481" width="21" height="21" rx="2.9400000000000004" fill="#2B2622"/>
  <rect x="313" y="481" width="21" height="21" rx="2.9400000000000004" fill="#2B2622"/>
  <rect x="376" y="481" width="21" height="21" rx="2.9400000000000004" fill="#2B2622"/>
  <rect x="397" y="481" width="21" height="21" rx="2.9400000000000004" fill="#2B2622"/>
  <rect x="439" y="481" width="21" height="21" rx="2.9400000000000004" fill="#2B2622"/>
  <rect x="460" y="481" width="21" height="21" rx="2.9400000000000004" fill="#2B2622"/>
  <rect x="481" y="481" width="21" height="21" rx="2.9400000000000004" fill="#2B2622"/>
  <rect x="523" y="481" width="21" height="21" rx="2.9400000000000004" fill="#2B2622"/>
  <rect x="544" y="481" width="21" height="21" rx="2.9400000000000004" fill="#2B2622"/>
  <rect x="628" y="481" width="21" height="21" rx="2.9400000000000004" fill="#2B2622"/>
  <rect x="691" y="481" width="21" height="21" rx="2.9400000000000004" fill="#2B2622"/>
  <rect x="817" y="481" width="21" height="21" rx="2.9400000000000004" fill="#2B2622"/>
  <rect x="838" y="481" width="21" height="21" rx="2.9400000000000004" fill="#2B2622"/>
  <rect x="187" y="502" width="21" height="21" rx="2.9400000000000004" fill="#2B2622"/>
  <rect x="208" y="502" width="21" height="21" rx="2.9400000000000004" fill="#2B2622"/>
  <rect x="250" y="502" width="21" height="21" rx="2.9400000000000004" fill="#2B2622"/>
  <rect x="271" y="502" width="21" height="21" rx="2.9400000000000004" fill="#2B2622"/>
  <rect x="292" y="502" width="21" height="21" rx="2.9400000000000004" fill="#2B2622"/>
  <rect x="313" y="502" width="21" height="21" rx="2.9400000000000004" fill="#2B2622"/>
  <rect x="334" y="502" width="21" height="21" rx="2.9400000000000004" fill="#2B2622"/>
  <rect x="376" y="502" width="21" height="21" rx="2.9400000000000004" fill="#2B2622"/>
  <rect x="397" y="502" width="21" height="21" rx="2.9400000000000004" fill="#2B2622"/>
  <rect x="418" y="502" width="21" height="21" rx="2.9400000000000004" fill="#2B2622"/>
  <rect x="439" y="502" width="21" height="21" rx="2.9400000000000004" fill="#2B2622"/>
  <rect x="460" y="502" width="21" height="21" rx="2.9400000000000004" fill="#2B2622"/>
  <rect x="502" y="502" width="21" height="21" rx="2.9400000000000004" fill="#2B2622"/>
  <rect x="523" y="502" width="21" height="21" rx="2.9400000000000004" fill="#2B2622"/>
  <rect x="586" y="502" width="21" height="21" rx="2.9400000000000004" fill="#2B2622"/>
  <rect x="628" y="502" width="21" height="21" rx="2.9400000000000004" fill="#2B2622"/>
  <rect x="712" y="502" width="21" height="21" rx="2.9400000000000004" fill="#2B2622"/>
  <rect x="733" y="502" width="21" height="21" rx="2.9400000000000004" fill="#2B2622"/>
  <rect x="775" y="502" width="21" height="21" rx="2.9400000000000004" fill="#2B2622"/>
  <rect x="229" y="523" width="21" height="21" rx="2.9400000000000004" fill="#2B2622"/>
  <rect x="271" y="523" width="21" height="21" rx="2.9400000000000004" fill="#2B2622"/>
  <rect x="313" y="523" width="21" height="21" rx="2.9400000000000004" fill="#2B2622"/>
  <rect x="334" y="523" width="21" height="21" rx="2.9400000000000004" fill="#2B2622"/>
  <rect x="460" y="523" width="21" height="21" rx="2.9400000000000004" fill="#2B2622"/>
  <rect x="481" y="523" width="21" height="21" rx="2.9400000000000004" fill="#2B2622"/>
  <rect x="502" y="523" width="21" height="21" rx="2.9400000000000004" fill="#2B2622"/>
  <rect x="523" y="523" width="21" height="21" rx="2.9400000000000004" fill="#2B2622"/>
  <rect x="544" y="523" width="21" height="21" rx="2.9400000000000004" fill="#2B2622"/>
  <rect x="565" y="523" width="21" height="21" rx="2.9400000000000004" fill="#2B2622"/>
  <rect x="586" y="523" width="21" height="21" rx="2.9400000000000004" fill="#2B2622"/>
  <rect x="607" y="523" width="21" height="21" rx="2.9400000000000004" fill="#2B2622"/>
  <rect x="649" y="523" width="21" height="21" rx="2.9400000000000004" fill="#2B2622"/>
  <rect x="712" y="523" width="21" height="21" rx="2.9400000000000004" fill="#2B2622"/>
  <rect x="733" y="523" width="21" height="21" rx="2.9400000000000004" fill="#2B2622"/>
  <rect x="796" y="523" width="21" height="21" rx="2.9400000000000004" fill="#2B2622"/>
  <rect x="838" y="523" width="21" height="21" rx="2.9400000000000004" fill="#2B2622"/>
  <rect x="187" y="544" width="21" height="21" rx="2.9400000000000004" fill="#2B2622"/>
  <rect x="208" y="544" width="21" height="21" rx="2.9400000000000004" fill="#2B2622"/>
  <rect x="292" y="544" width="21" height="21" rx="2.9400000000000004" fill="#2B2622"/>
  <rect x="334" y="544" width="21" height="21" rx="2.9400000000000004" fill="#2B2622"/>
  <rect x="376" y="544" width="21" height="21" rx="2.9400000000000004" fill="#2B2622"/>
  <rect x="418" y="544" width="21" height="21" rx="2.9400000000000004" fill="#2B2622"/>
  <rect x="439" y="544" width="21" height="21" rx="2.9400000000000004" fill="#2B2622"/>
  <rect x="460" y="544" width="21" height="21" rx="2.9400000000000004" fill="#2B2622"/>
  <rect x="481" y="544" width="21" height="21" rx="2.9400000000000004" fill="#2B2622"/>
  <rect x="523" y="544" width="21" height="21" rx="2.9400000000000004" fill="#2B2622"/>
  <rect x="544" y="544" width="21" height="21" rx="2.9400000000000004" fill="#2B2622"/>
  <rect x="565" y="544" width="21" height="21" rx="2.9400000000000004" fill="#2B2622"/>
  <rect x="607" y="544" width="21" height="21" rx="2.9400000000000004" fill="#2B2622"/>
  <rect x="649" y="544" width="21" height="21" rx="2.9400000000000004" fill="#2B2622"/>
  <rect x="691" y="544" width="21" height="21" rx="2.9400000000000004" fill="#2B2622"/>
  <rect x="712" y="544" width="21" height="21" rx="2.9400000000000004" fill="#2B2622"/>
  <rect x="775" y="544" width="21" height="21" rx="2.9400000000000004" fill="#2B2622"/>
  <rect x="796" y="544" width="21" height="21" rx="2.9400000000000004" fill="#2B2622"/>
  <rect x="838" y="544" width="21" height="21" rx="2.9400000000000004" fill="#2B2622"/>
  <rect x="229" y="565" width="21" height="21" rx="2.9400000000000004" fill="#2B2622"/>
  <rect x="313" y="565" width="21" height="21" rx="2.9400000000000004" fill="#2B2622"/>
  <rect x="334" y="565" width="21" height="21" rx="2.9400000000000004" fill="#2B2622"/>
  <rect x="376" y="565" width="21" height="21" rx="2.9400000000000004" fill="#2B2622"/>
  <rect x="397" y="565" width="21" height="21" rx="2.9400000000000004" fill="#2B2622"/>
  <rect x="439" y="565" width="21" height="21" rx="2.9400000000000004" fill="#2B2622"/>
  <rect x="460" y="565" width="21" height="21" rx="2.9400000000000004" fill="#2B2622"/>
  <rect x="544" y="565" width="21" height="21" rx="2.9400000000000004" fill="#2B2622"/>
  <rect x="565" y="565" width="21" height="21" rx="2.9400000000000004" fill="#2B2622"/>
  <rect x="586" y="565" width="21" height="21" rx="2.9400000000000004" fill="#2B2622"/>
  <rect x="628" y="565" width="21" height="21" rx="2.9400000000000004" fill="#2B2622"/>
  <rect x="649" y="565" width="21" height="21" rx="2.9400000000000004" fill="#2B2622"/>
  <rect x="733" y="565" width="21" height="21" rx="2.9400000000000004" fill="#2B2622"/>
  <rect x="754" y="565" width="21" height="21" rx="2.9400000000000004" fill="#2B2622"/>
  <rect x="775" y="565" width="21" height="21" rx="2.9400000000000004" fill="#2B2622"/>
  <rect x="817" y="565" width="21" height="21" rx="2.9400000000000004" fill="#2B2622"/>
  <rect x="166" y="586" width="21" height="21" rx="2.9400000000000004" fill="#2B2622"/>
  <rect x="187" y="586" width="21" height="21" rx="2.9400000000000004" fill="#2B2622"/>
  <rect x="208" y="586" width="21" height="21" rx="2.9400000000000004" fill="#2B2622"/>
  <rect x="292" y="586" width="21" height="21" rx="2.9400000000000004" fill="#2B2622"/>
  <rect x="334" y="586" width="21" height="21" rx="2.9400000000000004" fill="#2B2622"/>
  <rect x="397" y="586" width="21" height="21" rx="2.9400000000000004" fill="#2B2622"/>
  <rect x="418" y="586" width="21" height="21" rx="2.9400000000000004" fill="#2B2622"/>
  <rect x="460" y="586" width="21" height="21" rx="2.9400000000000004" fill="#2B2622"/>
  <rect x="481" y="586" width="21" height="21" rx="2.9400000000000004" fill="#2B2622"/>
  <rect x="523" y="586" width="21" height="21" rx="2.9400000000000004" fill="#2B2622"/>
  <rect x="544" y="586" width="21" height="21" rx="2.9400000000000004" fill="#2B2622"/>
  <rect x="586" y="586" width="21" height="21" rx="2.9400000000000004" fill="#2B2622"/>
  <rect x="649" y="586" width="21" height="21" rx="2.9400000000000004" fill="#2B2622"/>
  <rect x="670" y="586" width="21" height="21" rx="2.9400000000000004" fill="#2B2622"/>
  <rect x="712" y="586" width="21" height="21" rx="2.9400000000000004" fill="#2B2622"/>
  <rect x="733" y="586" width="21" height="21" rx="2.9400000000000004" fill="#2B2622"/>
  <rect x="817" y="586" width="21" height="21" rx="2.9400000000000004" fill="#2B2622"/>
  <rect x="187" y="607" width="21" height="21" rx="2.9400000000000004" fill="#2B2622"/>
  <rect x="229" y="607" width="21" height="21" rx="2.9400000000000004" fill="#2B2622"/>
  <rect x="271" y="607" width="21" height="21" rx="2.9400000000000004" fill="#2B2622"/>
  <rect x="313" y="607" width="21" height="21" rx="2.9400000000000004" fill="#2B2622"/>
  <rect x="460" y="607" width="21" height="21" rx="2.9400000000000004" fill="#2B2622"/>
  <rect x="481" y="607" width="21" height="21" rx="2.9400000000000004" fill="#2B2622"/>
  <rect x="502" y="607" width="21" height="21" rx="2.9400000000000004" fill="#2B2622"/>
  <rect x="565" y="607" width="21" height="21" rx="2.9400000000000004" fill="#2B2622"/>
  <rect x="607" y="607" width="21" height="21" rx="2.9400000000000004" fill="#2B2622"/>
  <rect x="628" y="607" width="21" height="21" rx="2.9400000000000004" fill="#2B2622"/>
  <rect x="691" y="607" width="21" height="21" rx="2.9400000000000004" fill="#2B2622"/>
  <rect x="712" y="607" width="21" height="21" rx="2.9400000000000004" fill="#2B2622"/>
  <rect x="796" y="607" width="21" height="21" rx="2.9400000000000004" fill="#2B2622"/>
  <rect x="838" y="607" width="21" height="21" rx="2.9400000000000004" fill="#2B2622"/>
  <rect x="166" y="628" width="21" height="21" rx="2.9400000000000004" fill="#2B2622"/>
  <rect x="187" y="628" width="21" height="21" rx="2.9400000000000004" fill="#2B2622"/>
  <rect x="229" y="628" width="21" height="21" rx="2.9400000000000004" fill="#2B2622"/>
  <rect x="250" y="628" width="21" height="21" rx="2.9400000000000004" fill="#2B2622"/>
  <rect x="292" y="628" width="21" height="21" rx="2.9400000000000004" fill="#2B2622"/>
  <rect x="355" y="628" width="21" height="21" rx="2.9400000000000004" fill="#2B2622"/>
  <rect x="397" y="628" width="21" height="21" rx="2.9400000000000004" fill="#2B2622"/>
  <rect x="460" y="628" width="21" height="21" rx="2.9400000000000004" fill="#2B2622"/>
  <rect x="481" y="628" width="21" height="21" rx="2.9400000000000004" fill="#2B2622"/>
  <rect x="502" y="628" width="21" height="21" rx="2.9400000000000004" fill="#2B2622"/>
  <rect x="544" y="628" width="21" height="21" rx="2.9400000000000004" fill="#2B2622"/>
  <rect x="565" y="628" width="21" height="21" rx="2.9400000000000004" fill="#2B2622"/>
  <rect x="649" y="628" width="21" height="21" rx="2.9400000000000004" fill="#2B2622"/>
  <rect x="670" y="628" width="21" height="21" rx="2.9400000000000004" fill="#2B2622"/>
  <rect x="691" y="628" width="21" height="21" rx="2.9400000000000004" fill="#2B2622"/>
  <rect x="712" y="628" width="21" height="21" rx="2.9400000000000004" fill="#2B2622"/>
  <rect x="754" y="628" width="21" height="21" rx="2.9400000000000004" fill="#2B2622"/>
  <rect x="775" y="628" width="21" height="21" rx="2.9400000000000004" fill="#2B2622"/>
  <rect x="796" y="628" width="21" height="21" rx="2.9400000000000004" fill="#2B2622"/>
  <rect x="838" y="628" width="21" height="21" rx="2.9400000000000004" fill="#2B2622"/>
  <rect x="208" y="649" width="21" height="21" rx="2.9400000000000004" fill="#2B2622"/>
  <rect x="250" y="649" width="21" height="21" rx="2.9400000000000004" fill="#2B2622"/>
  <rect x="271" y="649" width="21" height="21" rx="2.9400000000000004" fill="#2B2622"/>
  <rect x="313" y="649" width="21" height="21" rx="2.9400000000000004" fill="#2B2622"/>
  <rect x="355" y="649" width="21" height="21" rx="2.9400000000000004" fill="#2B2622"/>
  <rect x="376" y="649" width="21" height="21" rx="2.9400000000000004" fill="#2B2622"/>
  <rect x="397" y="649" width="21" height="21" rx="2.9400000000000004" fill="#2B2622"/>
  <rect x="418" y="649" width="21" height="21" rx="2.9400000000000004" fill="#2B2622"/>
  <rect x="523" y="649" width="21" height="21" rx="2.9400000000000004" fill="#2B2622"/>
  <rect x="544" y="649" width="21" height="21" rx="2.9400000000000004" fill="#2B2622"/>
  <rect x="586" y="649" width="21" height="21" rx="2.9400000000000004" fill="#2B2622"/>
  <rect x="628" y="649" width="21" height="21" rx="2.9400000000000004" fill="#2B2622"/>
  <rect x="775" y="649" width="21" height="21" rx="2.9400000000000004" fill="#2B2622"/>
  <rect x="166" y="670" width="21" height="21" rx="2.9400000000000004" fill="#2B2622"/>
  <rect x="187" y="670" width="21" height="21" rx="2.9400000000000004" fill="#2B2622"/>
  <rect x="208" y="670" width="21" height="21" rx="2.9400000000000004" fill="#2B2622"/>
  <rect x="250" y="670" width="21" height="21" rx="2.9400000000000004" fill="#2B2622"/>
  <rect x="271" y="670" width="21" height="21" rx="2.9400000000000004" fill="#2B2622"/>
  <rect x="292" y="670" width="21" height="21" rx="2.9400000000000004" fill="#2B2622"/>
  <rect x="313" y="670" width="21" height="21" rx="2.9400000000000004" fill="#2B2622"/>
  <rect x="334" y="670" width="21" height="21" rx="2.9400000000000004" fill="#2B2622"/>
  <rect x="355" y="670" width="21" height="21" rx="2.9400000000000004" fill="#2B2622"/>
  <rect x="418" y="670" width="21" height="21" rx="2.9400000000000004" fill="#2B2622"/>
  <rect x="439" y="670" width="21" height="21" rx="2.9400000000000004" fill="#2B2622"/>
  <rect x="460" y="670" width="21" height="21" rx="2.9400000000000004" fill="#2B2622"/>
  <rect x="523" y="670" width="21" height="21" rx="2.9400000000000004" fill="#2B2622"/>
  <rect x="565" y="670" width="21" height="21" rx="2.9400000000000004" fill="#2B2622"/>
  <rect x="586" y="670" width="21" height="21" rx="2.9400000000000004" fill="#2B2622"/>
  <rect x="649" y="670" width="21" height="21" rx="2.9400000000000004" fill="#2B2622"/>
  <rect x="670" y="670" width="21" height="21" rx="2.9400000000000004" fill="#2B2622"/>
  <rect x="691" y="670" width="21" height="21" rx="2.9400000000000004" fill="#2B2622"/>
  <rect x="712" y="670" width="21" height="21" rx="2.9400000000000004" fill="#2B2622"/>
  <rect x="733" y="670" width="21" height="21" rx="2.9400000000000004" fill="#2B2622"/>
  <rect x="754" y="670" width="21" height="21" rx="2.9400000000000004" fill="#2B2622"/>
  <rect x="817" y="670" width="21" height="21" rx="2.9400000000000004" fill="#2B2622"/>
  <rect x="838" y="670" width="21" height="21" rx="2.9400000000000004" fill="#2B2622"/>
  <rect x="334" y="691" width="21" height="21" rx="2.9400000000000004" fill="#2B2622"/>
  <rect x="355" y="691" width="21" height="21" rx="2.9400000000000004" fill="#2B2622"/>
  <rect x="376" y="691" width="21" height="21" rx="2.9400000000000004" fill="#2B2622"/>
  <rect x="397" y="691" width="21" height="21" rx="2.9400000000000004" fill="#2B2622"/>
  <rect x="460" y="691" width="21" height="21" rx="2.9400000000000004" fill="#2B2622"/>
  <rect x="502" y="691" width="21" height="21" rx="2.9400000000000004" fill="#2B2622"/>
  <rect x="544" y="691" width="21" height="21" rx="2.9400000000000004" fill="#2B2622"/>
  <rect x="607" y="691" width="21" height="21" rx="2.9400000000000004" fill="#2B2622"/>
  <rect x="670" y="691" width="21" height="21" rx="2.9400000000000004" fill="#2B2622"/>
  <rect x="754" y="691" width="21" height="21" rx="2.9400000000000004" fill="#2B2622"/>
  <rect x="775" y="691" width="21" height="21" rx="2.9400000000000004" fill="#2B2622"/>
  <rect x="838" y="691" width="21" height="21" rx="2.9400000000000004" fill="#2B2622"/>
  <rect x="334" y="712" width="21" height="21" rx="2.9400000000000004" fill="#2B2622"/>
  <rect x="397" y="712" width="21" height="21" rx="2.9400000000000004" fill="#2B2622"/>
  <rect x="418" y="712" width="21" height="21" rx="2.9400000000000004" fill="#2B2622"/>
  <rect x="439" y="712" width="21" height="21" rx="2.9400000000000004" fill="#2B2622"/>
  <rect x="481" y="712" width="21" height="21" rx="2.9400000000000004" fill="#2B2622"/>
  <rect x="523" y="712" width="21" height="21" rx="2.9400000000000004" fill="#2B2622"/>
  <rect x="544" y="712" width="21" height="21" rx="2.9400000000000004" fill="#2B2622"/>
  <rect x="586" y="712" width="21" height="21" rx="2.9400000000000004" fill="#2B2622"/>
  <rect x="670" y="712" width="21" height="21" rx="2.9400000000000004" fill="#2B2622"/>
  <rect x="712" y="712" width="21" height="21" rx="2.9400000000000004" fill="#2B2622"/>
  <rect x="754" y="712" width="21" height="21" rx="2.9400000000000004" fill="#2B2622"/>
  <rect x="796" y="712" width="21" height="21" rx="2.9400000000000004" fill="#2B2622"/>
  <rect x="838" y="712" width="21" height="21" rx="2.9400000000000004" fill="#2B2622"/>
  <rect x="334" y="733" width="21" height="21" rx="2.9400000000000004" fill="#2B2622"/>
  <rect x="376" y="733" width="21" height="21" rx="2.9400000000000004" fill="#2B2622"/>
  <rect x="418" y="733" width="21" height="21" rx="2.9400000000000004" fill="#2B2622"/>
  <rect x="439" y="733" width="21" height="21" rx="2.9400000000000004" fill="#2B2622"/>
  <rect x="460" y="733" width="21" height="21" rx="2.9400000000000004" fill="#2B2622"/>
  <rect x="523" y="733" width="21" height="21" rx="2.9400000000000004" fill="#2B2622"/>
  <rect x="586" y="733" width="21" height="21" rx="2.9400000000000004" fill="#2B2622"/>
  <rect x="607" y="733" width="21" height="21" rx="2.9400000000000004" fill="#2B2622"/>
  <rect x="649" y="733" width="21" height="21" rx="2.9400000000000004" fill="#2B2622"/>
  <rect x="670" y="733" width="21" height="21" rx="2.9400000000000004" fill="#2B2622"/>
  <rect x="754" y="733" width="21" height="21" rx="2.9400000000000004" fill="#2B2622"/>
  <rect x="817" y="733" width="21" height="21" rx="2.9400000000000004" fill="#2B2622"/>
  <rect x="838" y="733" width="21" height="21" rx="2.9400000000000004" fill="#2B2622"/>
  <rect x="355" y="754" width="21" height="21" rx="2.9400000000000004" fill="#2B2622"/>
  <rect x="418" y="754" width="21" height="21" rx="2.9400000000000004" fill="#2B2622"/>
  <rect x="439" y="754" width="21" height="21" rx="2.9400000000000004" fill="#2B2622"/>
  <rect x="460" y="754" width="21" height="21" rx="2.9400000000000004" fill="#2B2622"/>
  <rect x="481" y="754" width="21" height="21" rx="2.9400000000000004" fill="#2B2622"/>
  <rect x="502" y="754" width="21" height="21" rx="2.9400000000000004" fill="#2B2622"/>
  <rect x="523" y="754" width="21" height="21" rx="2.9400000000000004" fill="#2B2622"/>
  <rect x="544" y="754" width="21" height="21" rx="2.9400000000000004" fill="#2B2622"/>
  <rect x="565" y="754" width="21" height="21" rx="2.9400000000000004" fill="#2B2622"/>
  <rect x="586" y="754" width="21" height="21" rx="2.9400000000000004" fill="#2B2622"/>
  <rect x="607" y="754" width="21" height="21" rx="2.9400000000000004" fill="#2B2622"/>
  <rect x="649" y="754" width="21" height="21" rx="2.9400000000000004" fill="#2B2622"/>
  <rect x="670" y="754" width="21" height="21" rx="2.9400000000000004" fill="#2B2622"/>
  <rect x="691" y="754" width="21" height="21" rx="2.9400000000000004" fill="#2B2622"/>
  <rect x="712" y="754" width="21" height="21" rx="2.9400000000000004" fill="#2B2622"/>
  <rect x="733" y="754" width="21" height="21" rx="2.9400000000000004" fill="#2B2622"/>
  <rect x="754" y="754" width="21" height="21" rx="2.9400000000000004" fill="#2B2622"/>
  <rect x="775" y="754" width="21" height="21" rx="2.9400000000000004" fill="#2B2622"/>
  <rect x="355" y="775" width="21" height="21" rx="2.9400000000000004" fill="#2B2622"/>
  <rect x="397" y="775" width="21" height="21" rx="2.9400000000000004" fill="#2B2622"/>
  <rect x="418" y="775" width="21" height="21" rx="2.9400000000000004" fill="#2B2622"/>
  <rect x="439" y="775" width="21" height="21" rx="2.9400000000000004" fill="#2B2622"/>
  <rect x="460" y="775" width="21" height="21" rx="2.9400000000000004" fill="#2B2622"/>
  <rect x="481" y="775" width="21" height="21" rx="2.9400000000000004" fill="#2B2622"/>
  <rect x="544" y="775" width="21" height="21" rx="2.9400000000000004" fill="#2B2622"/>
  <rect x="565" y="775" width="21" height="21" rx="2.9400000000000004" fill="#2B2622"/>
  <rect x="586" y="775" width="21" height="21" rx="2.9400000000000004" fill="#2B2622"/>
  <rect x="607" y="775" width="21" height="21" rx="2.9400000000000004" fill="#2B2622"/>
  <rect x="670" y="775" width="21" height="21" rx="2.9400000000000004" fill="#2B2622"/>
  <rect x="691" y="775" width="21" height="21" rx="2.9400000000000004" fill="#2B2622"/>
  <rect x="733" y="775" width="21" height="21" rx="2.9400000000000004" fill="#2B2622"/>
  <rect x="754" y="775" width="21" height="21" rx="2.9400000000000004" fill="#2B2622"/>
  <rect x="775" y="775" width="21" height="21" rx="2.9400000000000004" fill="#2B2622"/>
  <rect x="796" y="775" width="21" height="21" rx="2.9400000000000004" fill="#2B2622"/>
  <rect x="817" y="775" width="21" height="21" rx="2.9400000000000004" fill="#2B2622"/>
  <rect x="334" y="796" width="21" height="21" rx="2.9400000000000004" fill="#2B2622"/>
  <rect x="439" y="796" width="21" height="21" rx="2.9400000000000004" fill="#2B2622"/>
  <rect x="544" y="796" width="21" height="21" rx="2.9400000000000004" fill="#2B2622"/>
  <rect x="607" y="796" width="21" height="21" rx="2.9400000000000004" fill="#2B2622"/>
  <rect x="628" y="796" width="21" height="21" rx="2.9400000000000004" fill="#2B2622"/>
  <rect x="754" y="796" width="21" height="21" rx="2.9400000000000004" fill="#2B2622"/>
  <rect x="796" y="796" width="21" height="21" rx="2.9400000000000004" fill="#2B2622"/>
  <rect x="817" y="796" width="21" height="21" rx="2.9400000000000004" fill="#2B2622"/>
  <rect x="838" y="796" width="21" height="21" rx="2.9400000000000004" fill="#2B2622"/>
  <rect x="418" y="817" width="21" height="21" rx="2.9400000000000004" fill="#2B2622"/>
  <rect x="439" y="817" width="21" height="21" rx="2.9400000000000004" fill="#2B2622"/>
  <rect x="460" y="817" width="21" height="21" rx="2.9400000000000004" fill="#2B2622"/>
  <rect x="481" y="817" width="21" height="21" rx="2.9400000000000004" fill="#2B2622"/>
  <rect x="523" y="817" width="21" height="21" rx="2.9400000000000004" fill="#2B2622"/>
  <rect x="586" y="817" width="21" height="21" rx="2.9400000000000004" fill="#2B2622"/>
  <rect x="607" y="817" width="21" height="21" rx="2.9400000000000004" fill="#2B2622"/>
  <rect x="628" y="817" width="21" height="21" rx="2.9400000000000004" fill="#2B2622"/>
  <rect x="649" y="817" width="21" height="21" rx="2.9400000000000004" fill="#2B2622"/>
  <rect x="670" y="817" width="21" height="21" rx="2.9400000000000004" fill="#2B2622"/>
  <rect x="691" y="817" width="21" height="21" rx="2.9400000000000004" fill="#2B2622"/>
  <rect x="775" y="817" width="21" height="21" rx="2.9400000000000004" fill="#2B2622"/>
  <rect x="418" y="838" width="21" height="21" rx="2.9400000000000004" fill="#2B2622"/>
  <rect x="439" y="838" width="21" height="21" rx="2.9400000000000004" fill="#2B2622"/>
  <rect x="502" y="838" width="21" height="21" rx="2.9400000000000004" fill="#2B2622"/>
  <rect x="565" y="838" width="21" height="21" rx="2.9400000000000004" fill="#2B2622"/>
  <rect x="628" y="838" width="21" height="21" rx="2.9400000000000004" fill="#2B2622"/>
  <rect x="670" y="838" width="21" height="21" rx="2.9400000000000004" fill="#2B2622"/>
  <rect x="712" y="838" width="21" height="21" rx="2.9400000000000004" fill="#2B2622"/>
  <rect x="754" y="838" width="21" height="21" rx="2.9400000000000004" fill="#2B2622"/>
  <rect x="775" y="838" width="21" height="21" rx="2.9400000000000004" fill="#2B2622"/>
  <rect x="838" y="838" width="21" height="21" rx="2.9400000000000004" fill="#2B2622"/>
<rect x="166" y="166" width="147" height="147" rx="26.25" fill="#2B2622"/>
<rect x="187" y="187" width="105" height="105" rx="21" fill="#FFFCF7"/>
<rect x="208" y="208" width="63" height="63" rx="15.12" fill="#2B2622"/>
<rect x="712" y="166" width="147" height="147" rx="26.25" fill="#2B2622"/>
<rect x="733" y="187" width="105" height="105" rx="21" fill="#FFFCF7"/>
<rect x="754" y="208" width="63" height="63" rx="15.12" fill="#2B2622"/>
<rect x="166" y="712" width="147" height="147" rx="26.25" fill="#2B2622"/>
<rect x="187" y="733" width="105" height="105" rx="21" fill="#FFFCF7"/>
<rect x="208" y="754" width="63" height="63" rx="15.12" fill="#2B2622"/>
</svg>