<?xml version="1.0" encoding="UTF-8"?>
<svg width="1024" height="1024" viewBox="0 0 1024 1024" fill="none" xmlns="http://www.w3.org/2000/svg">
  <defs>
    <filter id="card-shadow" x="0" y="0" width="1024" height="1024" filterUnits="userSpaceOnUse" color-interpolation-filters="sRGB">
      <feDropShadow dx="0" dy="18" stdDeviation="18" flood-color="#2F241D" flood-opacity="0.12"/>
    </filter>
  </defs>
  <rect width="1024" height="1024" rx="84" fill="#FFFDF9"/>
  <g filter="url(#card-shadow)">
    <rect x="64" y="64" width="896" height="896" rx="72" fill="#FFFDFA" stroke="#E6DDD0" stroke-width="6"/>
  </g>
  <rect x="132" y="132" width="761" height="761" rx="38" fill="#FFFDF9"/>
  <rect x="148" y="148" width="729" height="729" rx="28" fill="#FFFFFF" stroke="#E9E0D2" stroke-width="2"/>
  <rect x="334" y="166" width="21" height="21" rx="2.9400000000000004" fill="#2F241D"/>
  <rect x="376" y="166" width="21" height="21" rx="2.9400000000000004" fill="#2F241D"/>
  <rect x="439" y="166" width="21" height="21" rx="2.9400000000000004" fill="#2F241D"/>
  <rect x="460" y="166" width="21" height="21" rx="2.9400000000000004" fill="#2F241D"/>
  <rect x="523" y="166" width="21" height="21" rx="2.9400000000000004" fill="#2F241D"/>
  <rect x="607" y="166" width="21" height="21" rx="2.9400000000000004" fill="#2F241D"/>
  <rect x="649" y="166" width="21" height="21" rx="2.9400000000000004" fill="#2F241D"/>
  <rect x="670" y="166" width="21" height="21" rx="2.9400000000000004" fill="#2F241D"/>
  <rect x="334" y="187" width="21" height="21" rx="2.9400000000000004" fill="#2F241D"/>
  <rect x="355" y="187" width="21" height="21" rx="2.9400000000000004" fill="#2F241D"/>
  <rect x="376" y="187" width="21" height="21" rx="2.9400000000000004" fill="#2F241D"/>
  <rect x="397" y="187" width="21" height="21" rx="2.9400000000000004" fill="#2F241D"/>
  <rect x="439" y="187" width="21" height="21" rx="2.9400000000000004" fill="#2F241D"/>
  <rect x="460" y="187" width="21" height="21" rx="2.9400000000000004" fill="#2F241D"/>
  <rect x="502" y="187" width="21" height="21" rx="2.9400000000000004" fill="#2F241D"/>
  <rect x="523" y="187" width="21" height="21" rx="2.9400000000000004" fill="#2F241D"/>
  <rect x="544" y="187" width="21" height="21" rx="2.9400000000000004" fill="#2F241D"/>
  <rect x="565" y="187" width="21" height="21" rx="2.9400000000000004" fill="#2F241D"/>
  <rect x="607" y="187" width="21" height="21" rx="2.9400000000000004" fill="#2F241D"/>
  <rect x="670" y="187" width="21" height="21" rx="2.9400000000000004" fill="#2F241D"/>
  <rect x="334" y="208" width="21" height="21" rx="2.9400000000000004" fill="#2F241D"/>
  <rect x="397" y="208" width="21" height="21" rx="2.9400000000000004" fill="#2F241D"/>
  <rect x="418" y="208" width="21" height="21" rx="2.9400000000000004" fill="#2F241D"/>
  <rect x="460" y="208" width="21" height="21" rx="2.9400000000000004" fill="#2F241D"/>
  <rect x="481" y="208" width="21" height="21" rx="2.9400000000000004" fill="#2F241D"/>
  <rect x="502" y="208" width="21" height="21" rx="2.9400000000000004" fill="#2F241D"/>
  <rect x="544" y="208" width="21" height="21" rx="2.9400000000000004" fill="#2F241D"/>
  <rect x="607" y="208" width="21" height="21" rx="2.9400000000000004" fill="#2F241D"/>
  <rect x="628" y="208" width="21" height="21" rx="2.9400000000000004" fill="#2F241D"/>
  <rect x="649" y="208" width="21" height="21" rx="2.9400000000000004" fill="#2F241D"/>
  <rect x="670" y="208" width="21" height="21" rx="2.9400000000000004" fill="#2F241D"/>
  <rect x="355" y="229" width="21" height="21" rx="2.9400000000000004" fill="#2F241D"/>
  <rect x="376" y="229" width="21" height="21" rx="2.9400000000000004" fill="#2F241D"/>
  <rect x="418" y="229" width="21" height="21" rx="2.9400000000000004" fill="#2F241D"/>
  <rect x="502" y="229" width="21" height="21" rx="2.9400000000000004" fill="#2F241D"/>
  <rect x="523" y="229" width="21" height="21" rx="2.9400000000000004" fill="#2F241D"/>
  <rect x="544" y="229" width="21" height="21" rx="2.9400000000000004" fill="#2F241D"/>
  <rect x="586" y="229" width="21" height="21" rx="2.9400000000000004" fill="#2F241D"/>
  <rect x="628" y="229" width="21" height="21" rx="2.9400000000000004" fill="#2F241D"/>
  <rect x="649" y="229" width="21" height="21" rx="2.9400000000000004" fill="#2F241D"/>
  <rect x="670" y="229" width="21" height="21" rx="2.9400000000000004" fill="#2F241D"/>
  <rect x="376" y="250" width="21" height="21" rx="2.9400000000000004" fill="#2F241D"/>
  <rect x="397" y="250" width="21" height="21" rx="2.9400000000000004" fill="#2F241D"/>
  <rect x="439" y="250" width="21" height="21" rx="2.9400000000000004" fill="#2F241D"/>
  <rect x="460" y="250" width="21" height="21" rx="2.9400000000000004" fill="#2F241D"/>
  <rect x="502" y="250" width="21" height="21" rx="2.9400000000000004" fill="#2F241D"/>
  <rect x="523" y="250" width="21" height="21" rx="2.9400000000000004" fill="#2F241D"/>
  <rect x="334" y="271" width="21" height="21" rx="2.9400000000000004" fill="#2F241D"/>
  <rect x="355" y="271" width="21" height="21" rx="2.9400000000000004" fill="#2F241D"/>
  <rect x="397" y="271" width="21" height="21" rx="2.9400000000000004" fill="#2F241D"/>
  <rect x="439" y="271" width="21" height="21" rx="2.9400000000000004" fill="#2F241D"/>
  <rect x="460" y="271" width="21" height="21" rx="2.9400000000000004" fill="#2F241D"/>
  <rect x="502" y="271" width="21" height="21" rx="2.9400000000000004" fill="#2F241D"/>
  <rect x="565" y="271" width="21" height="21" rx="2.9400000000000004" fill="#2F241D"/>
  <rect x="586" y="271" width="21" height="21" rx="2.9400000000000004" fill="#2F241D"/>
  <rect x="607" y="271" width="21" height="21" rx="2.9400000000000004" fill="#2F241D"/>
  <rect x="628" y="271" width="21" height="21" rx="2.9400000000000004" fill="#2F241D"/>
  <rect x="649" y="271" width="21" height="21" rx="2.9400000000000004" fill="#2F241D"/>
  <rect x="670" y="271" width="21" height="21" rx="2.9400000000000004" fill="#2F241D"/>
  <rect x="334" y="292" width="21" height="21" rx="2.9400000000000004" fill="#2F241D"/>
  <rect x="376" y="292" width="21" height="21" rx="2.9400000000000004" fill="#2F241D"/>
  <rect x="418" y="292" width="21" height="21" rx="2.9400000000000004" fill="#2F241D"/>
  <rect x="460" y="292" width="21" height="21" rx="2.9400000000000004" fill="#2F241D"/>
  <rect x="502" y="292" width="21" height="21" rx="2.9400000000000004" fill="#2F241D"/>
  <rect x="544" y="292" width="21" height="21" rx="2.9400000000000004" fill="#2F241D"/>
  <rect x="586" y="292" width="21" height="21" rx="2.9400000000000004" fill="#2F241D"/>
  <rect x="628" y="292" width="21" height="21" rx="2.9400000000000004" fill="#2F241D"/>
  <rect x="670" y="292" width="21" height="21" rx="2.9400000000000004" fill="#2F241D"/>
  <rect x="334" y="313" width="21" height="21" rx="2.9400000000000004" fill="#2F241D"/>
  <rect x="355" y="313" width="21" height="21" rx="2.9400000000000004" fill="#2F241D"/>
  <rect x="397" y="313" width="21" height="21" rx="2.9400000000000004" fill="#2F241D"/>
  <rect x="439" y="313" width="21" height="21" rx="2.9400000000000004" fill="#2F241D"/>
  <rect x="502" y="313" width="21" height="21" rx="2.9400000000000004" fill="#2F241D"/>
  <rect x="523" y="313" width="21" height="21" rx="2.9400000000000004" fill="#2F241D"/>
  <rect x="565" y="313" width="21" height="21" rx="2.9400000000000004" fill="#2F241D"/>
  <rect x="586" y="313" width="21" height="21" rx="2.9400000000000004" fill="#2F241D"/>
  <rect x="607" y="313" width="21" height="21" rx="2.9400000000000004" fill="#2F241D"/>
  <rect x="628" y="313" width="21" height="21" rx="2.9400000000000004" fill="#2F241D"/>
  <rect x="649" y="313" width="21" height="21" rx="2.9400000000000004" fill="#2F241D"/>
  <rect x="208" y="334" width="21" height="21" rx="2.9400000000000004" fill="#2F241D"/>
  <rect x="229" y="334" width="21" height="21" rx="2.9400000000000004" fill="#2F241D"/>
  <rect x="250" y="334" width="21" height="21" rx="2.9400000000000004" fill="#2F241D"/>
  <rect x="292" y="334" width="21" height="21" rx="2.9400000000000004" fill="#2F241D"/>
  <rect x="334" y="334" width="21" height="21" rx="2.9400000000000004" fill="#2F241D"/>
  <rect x="376" y="334" width="21" height="21" rx="2.9400000000000004" fill="#2F241D"/>
  <rect x="397" y="334" width="21" height="21" rx="2.9400000000000004" fill="#2F241D"/>
  <rect x="439" y="334" width="21" height="21" rx="2.9400000000000004" fill="#2F241D"/>
  <rect x="460" y="334" width="21" height="21" rx="2.9400000000000004" fill="#2F241D"/>
  <rect x="586" y="334" width="21" height="21" rx="2.9400000000000004" fill="#2F241D"/>
  <rect x="628" y="334" width="21" height="21" rx="2.9400000000000004" fill="#2F241D"/>
  <rect x="649" y="334" width="21" height="21" rx="2.9400000000000004" fill="#2F241D"/>
  <rect x="670" y="334" width="21" height="21" rx="2.9400000000000004" fill="#2F241D"/>
  <rect x="691" y="334" width="21" height="21" rx="2.9400000000000004" fill="#2F241D"/>
  <rect x="712" y="334" width="21" height="21" rx="2.9400000000000004" fill="#2F241D"/>
  <rect x="733" y="334" width="21" height="21" rx="2.9400000000000004" fill="#2F241D"/>
  <rect x="796" y="334" width="21" height="21" rx="2.9400000000000004" fill="#2F241D"/>
  <rect x="817" y="334" width="21" height="21" rx="2.9400000000000004" fill="#2F241D"/>
  <rect x="838" y="334" width="21" height="21" rx="2.9400000000000004" fill="#2F241D"/>
  <rect x="166" y="355" width="21" height="21" rx="2.9400000000000004" fill="#2F241D"/>
  <rect x="187" y="355" width="21" height="21" rx="2.9400000000000004" fill="#2F241D"/>
  <rect x="208" y="355" width="21" height="21" rx="2.9400000000000004" fill="#2F241D"/>
  <rect x="250" y="355" width="21" height="21" rx="2.9400000000000004" fill="#2F241D"/>
  <rect x="271" y="355" width="21" height="21" rx="2.9400000000000004" fill="#2F241D"/>
  <rect x="376" y="355" width="21" height="21" rx="2.9400000000000004" fill="#2F241D"/>
  <rect x="502" y="355" width="21" height="21" rx="2.9400000000000004" fill="#2F241D"/>
  <rect x="523" y="355" width="21" height="21" rx="2.9400000000000004" fill="#2F241D"/>
  <rect x="544" y="355" width="21" height="21" rx="2.9400000000000004" fill="#2F241D"/>
  <rect x="607" y="355" width="21" height="21" rx="2.9400000000000004" fill="#2F241D"/>
  <rect x="649" y="355" width="21" height="21" rx="2.9400000000000004" fill="#2F241D"/>
  <rect x="670" y="355" width="21" height="21" rx="2.9400000000000004" fill="#2F241D"/>
  <rect x="691" y="355" width="21" height="21" rx="2.9400000000000004" fill="#2F241D"/>
  <rect x="712" y="355" width="21" height="21" rx="2.9400000000000004" fill="#2F241D"/>
  <rect x="775" y="355" width="21" height="21" rx="2.9400000000000004" fill="#2F241D"/>
  <rect x="838" y="355" width="21" height="21" rx="2.9400000000000004" fill="#2F241D"/>
  <rect x="166" y="376" width="21" height="21" rx="2.9400000000000004" fill="#2F241D"/>
  <rect x="208" y="376" width="21" height="21" rx="2.9400000000000004" fill="#2F241D"/>
  <rect x="229" y="376" width="21" height="21" rx="2.9400000000000004" fill="#2F241D"/>
  <rect x="250" y="376" width="21" height="21" rx="2.9400000000000004" fill="#2F241D"/>
  <rect x="292" y="376" width="21" height="21" rx="2.9400000000000004" fill="#2F241D"/>
  <rect x="376" y="376" width="21" height="21" rx="2.9400000000000004" fill="#2F241D"/>
  <rect x="397" y="376" width="21" height="21" rx="2.9400000000000004" fill="#2F241D"/>
  <rect x="418" y="376" width="21" height="21" rx="2.9400000000000004" fill="#2F241D"/>
  <rect x="439" y="376" width="21" height="21" rx="2.9400000000000004" fill="#2F241D"/>
  <rect x="460" y="376" width="21" height="21" rx="2.9400000000000004" fill="#2F241D"/>
  <rect x="502" y="376" width="21" height="21" rx="2.9400000000000004" fill="#2F241D"/>
  <rect x="523" y="376" width="21" height="21" rx="2.9400000000000004" fill="#2F241D"/>
  <rect x="607" y="376" width="21" height="21" rx="2.9400000000000004" fill="#2F241D"/>
  <rect x="691" y="376" width="21" height="21" rx="2.9400000000000004" fill="#2F241D"/>
  <rect x="712" y="376" width="21" height="21" rx="2.9400000000000004" fill="#2F241D"/>
  <rect x="733" y="376" width="21" height="21" rx="2.9400000000000004" fill="#2F241D"/>
  <rect x="796" y="376" width="21" height="21" rx="2.9400000000000004" fill="#2F241D"/>
  <rect x="817" y="376" width="21" height="21" rx="2.9400000000000004" fill="#2F241D"/>
  <rect x="166" y="397" width="21" height="21" rx="2.9400000000000004" fill="#2F241D"/>
  <rect x="187" y="397" width="21" height="21" rx="2.9400000000000004" fill="#2F241D"/>
  <rect x="208" y="397" width="21" height="21" rx="2.9400000000000004" fill="#2F241D"/>
  <rect x="250" y="397" width="21" height="21" rx="2.9400000000000004" fill="#2F241D"/>
  <rect x="376" y="397" width="21" height="21" rx="2.9400000000000004" fill="#2F241D"/>
  <rect x="397" y="397" width="21" height="21" rx="2.9400000000000004" fill="#2F241D"/>
  <rect x="418" y="397" width="21" height="21" rx="2.9400000000000004" fill="#2F241D"/>
  <rect x="502" y="397" width="21" height="21" rx="2.9400000000000004" fill="#2F241D"/>
  <rect x="544" y="397" width="21" height="21" rx="2.9400000000000004" fill="#2F241D"/>
  <rect x="565" y="397" width="21" height="21" rx="2.9400000000000004" fill="#2F241D"/>
  <rect x="586" y="397" width="21" height="21" rx="2.9400000000000004" fill="#2F241D"/>
  <rect x="607" y="397" width="21" height="21" rx="2.9400000000000004" fill="#2F241D"/>
  <rect x="628" y="397" width="21" height="21" rx="2.9400000000000004" fill="#2F241D"/>
  <rect x="649" y="397" width="21" height="21" rx="2.9400000000000004" fill="#2F241D"/>
  <rect x="670" y="397" width="21" height="21" rx="2.9400000000000004" fill="#2F241D"/>
  <rect x="712" y="397" width="21" height="21" rx="2.9400000000000004" fill="#2F241D"/>
  <rect x="775" y="397" width="21" height="21" rx="2.9400000000000004" fill="#2F241D"/>
  <rect x="796" y="397" width="21" height="21" rx="2.9400000000000004" fill="#2F241D"/>
  <rect x="838" y="397" width="21" height="21" rx="2.9400000000000004" fill="#2F241D"/>
  <rect x="187" y="418" width="21" height="21" rx="2.9400000000000004" fill="#2F241D"/>
  <rect x="208" y="418" width="21" height="21" rx="2.9400000000000004" fill="#2F241D"/>
  <rect x="250" y="418" width="21" height="21" rx="2.9400000000000004" fill="#2F241D"/>
  <rect x="271" y="418" width="21" height="21" rx="2.9400000000000004" fill="#2F241D"/>
  <rect x="292" y="418" width="21" height="21" rx="2.9400000000000004" fill="#2F241D"/>
  <rect x="313" y="418" width="21" height="21" rx="2.9400000000000004" fill="#2F241D"/>
  <rect x="355" y="418" width="21" height="21" rx="2.9400000000000004" fill="#2F241D"/>
  <rect x="376" y="418" width="21" height="21" rx="2.9400000000000004" fill="#2F241D"/>
  <rect x="397" y="418" width="21" height="21" rx="2.9400000000000004" fill="#2F241D"/>
  <rect x="439" y="418" width="21" height="21" rx="2.9400000000000004" fill="#2F241D"/>
  <rect x="481" y="418" width="21" height="21" rx="2.9400000000000004" fill="#2F241D"/>
  <rect x="502" y="418" width="21" height="21" rx="2.9400000000000004" fill="#2F241D"/>
  <rect x="523" y="418" width="21" height="21" rx="2.9400000000000004" fill="#2F241D"/>
  <rect x="607" y="418" width="21" height="21" rx="2.9400000000000004" fill="#2F241D"/>
  <rect x="670" y="418" width="21" height="21" rx="2.9400000000000004" fill="#2F241D"/>
  <rect x="691" y="418" width="21" height="21" rx="2.9400000000000004" fill="#2F241D"/>
  <rect x="166" y="439" width="21" height="21" rx="2.9400000000000004" fill="#2F241D"/>
  <rect x="313" y="439" width="21" height="21" rx="2.9400000000000004" fill="#2F241D"/>
  <rect x="334" y="439" width="21" height="21" rx="2.9400000000000004" fill="#2F241D"/>
  <rect x="397" y="439" width="21" height="21" rx="2.9400000000000004" fill="#2F241D"/>
  <rect x="418" y="439" width="21" height="21" rx="2.9400000000000004" fill="#2F241D"/>
  <rect x="460" y="439" width="21" height="21" rx="2.9400000000000004" fill="#2F241D"/>
  <rect x="586" y="439" width="21" height="21" rx="2.9400000000000004" fill="#2F241D"/>
  <rect x="628" y="439" width="21" height="21" rx="2.9400000000000004" fill="#2F241D"/>
  <rect x="649" y="439" width="21" height="21" rx="2.9400000000000004" fill="#2F241D"/>
  <rect x="712" y="439" width="21" height="21" rx="2.9400000000000004" fill="#2F241D"/>
  <rect x="733" y="439" width="21" height="21" rx="2.9400000000000004" fill="#2F241D"/>
  <rect x="796" y="439" width="21" height="21" rx="2.9400000000000004" fill="#2F241D"/>
  <rect x="838" y="439" width="21" height="21" rx="2.9400000000000004" fill="#2F241D"/>
  <rect x="166" y="460" width="21" height="21" rx="2.9400000000000004" fill="#2F241D"/>
  <rect x="187" y="460" width="21" height="21" rx="2.9400000000000004" fill="#2F241D"/>
  <rect x="229" y="460" width="21" height="21" rx="2.9400000000000004" fill="#2F241D"/>
  <rect x="271" y="460" width="21" height="21" rx="2.9400000000000004" fill="#2F241D"/>
  <rect x="292" y="460" width="21" height="21" rx="2.9400000000000004" fill="#2F241D"/>
  <rect x="460" y="460" width="21" height="21" rx="2.9400000000000004" fill="#2F241D"/>
  <rect x="502" y="460" width="21" height="21" rx="2.9400000000000004" fill="#2F241D"/>
  <rect x="544" y="460" width="21" height="21" rx="2.9400000000000004" fill="#2F241D"/>
  <rect x="565" y="460" width="21" height="21" rx="2.9400000000000004" fill="#2F241D"/>
  <rect x="628" y="460" width="21" height="21" rx="2.9400000000000004" fill="#2F241D"/>
  <rect x="670" y="460" width="21" height="21" rx="2.9400000000000004" fill="#2F241D"/>
  <rect x="712" y="460" width="21" height="21" rx="2.9400000000000004" fill="#2F241D"/>
  <rect x="796" y="460" width="21" height="21" rx="2.9400000000000004" fill="#2F241D"/>
  <rect x="817" y="460" width="21" height="21" rx="2.9400000000000004" fill="#2F241D"/>
  <rect x="208" y="481" width="21" height="21" rx="2.9400000000000004" fill="#2F241D"/>
  <rect x="229" y="481" width="21" height="21" rx="2.9400000000000004" fill="#2F241D"/>
  <rect x="250" y="481" width="21" height="21" rx="2.9400000000000004" fill="#2F241D"/>
  <rect x="271" y="481" width="21" height="21" rx="2.9400000000000004" fill="#2F241D"/>
  <rect x="334" y="481" width="21" height="21" rx="2.9400000000000004" fill="#2F241D"/>
  <rect x="376" y="481" width="21" height="21" rx="2.9400000000000004" fill="#2F241D"/>
  <rect x="397" y="481" width="21" height="21" rx="2.9400000000000004" fill="#2F241D"/>
  <rect x="418" y="481" width="21" height="21" rx="2.9400000000000004" fill="#2F241D"/>
  <rect x="460" y="481" width="21" height="21" rx="2.9400000000000004" fill="#2F241D"/>
  <rect x="523" y="481" width="21" height="21" rx="2.9400000000000004" fill="#2F241D"/>
  <rect x="544" y="481" width="21" height="21" rx="2.9400000000000004" fill="#2F241D"/>
  <rect x="607" y="481" width="21" height="21" rx="2.9400000000000004" fill="#2F241D"/>
  <rect x="628" y="481" width="21" height="21" rx="2.9400000000000004" fill="#2F241D"/>
  <rect x="670" y="481" width="21" height="21" rx="2.9400000000000004" fill="#2F241D"/>
  <rect x="691" y="481" width="21" height="21" rx="2.9400000000000004" fill="#2F241D"/>
  <rect x="733" y="481" width="21" height="21" rx="2.9400000000000004" fill="#2F241D"/>
  <rect x="796" y="481" width="21" height="21" rx="2.9400000000000004" fill="#2F241D"/>
  <rect x="817" y="481" width="21" height="21" rx="2.9400000000000004" fill="#2F241D"/>
  <rect x="838" y="481" width="21" height="21" rx="2.9400000000000004" fill="#2F241D"/>
  <rect x="166" y="502" width="21" height="21" rx="2.9400000000000004" fill="#2F241D"/>
  <rect x="229" y="502" width="21" height="21" rx="2.9400000000000004" fill="#2F241D"/>
  <rect x="250" y="502" width="21" height="21" rx="2.9400000000000004" fill="#2F241D"/>
  <rect x="292" y="502" width="21" height="21" rx="2.9400000000000004" fill="#2F241D"/>
  <rect x="334" y="502" width="21" height="21" rx="2.9400000000000004" fill="#2F241D"/>
  <rect x="355" y="502" width="21" height="21" rx="2.9400000000000004" fill="#2F241D"/>
  <rect x="376" y="502" width="21" height="21" rx="2.9400000000000004" fill="#2F241D"/>
  <rect x="418" y="502" width="21" height="21" rx="2.9400000000000004" fill="#2F241D"/>
  <rect x="460" y="502" width="21" height="21" rx="2.9400000000000004" fill="#2F241D"/>
  <rect x="523" y="502" width="21" height="21" rx="2.9400000000000004" fill="#2F241D"/>
  <rect x="565" y="502" width="21" height="21" rx="2.9400000000000004" fill="#2F241D"/>
  <rect x="586" y="502" width="21" height="21" rx="2.9400000000000004" fill="#2F241D"/>
  <rect x="649" y="502" width="21" height="21" rx="2.9400000000000004" fill="#2F241D"/>
  <rect x="691" y="502" width="21" height="21" rx="2.9400000000000004" fill="#2F241D"/>
  <rect x="733" y="502" width="21" height="21" rx="2.9400000000000004" fill="#2F241D"/>
  <rect x="754" y="502" width="21" height="21" rx="2.9400000000000004" fill="#2F241D"/>
  <rect x="796" y="502" width="21" height="21" rx="2.9400000000000004" fill="#2F241D"/>
  <rect x="838" y="502" width="21" height="21" rx="2.9400000000000004" fill="#2F241D"/>
  <rect x="166" y="523" width="21" height="21" rx="2.9400000000000004" fill="#2F241D"/>
  <rect x="187" y="523" width="21" height="21" rx="2.9400000000000004" fill="#2F241D"/>
  <rect x="271" y="523" width="21" height="21" rx="2.9400000000000004" fill="#2F241D"/>
  <rect x="313" y="523" width="21" height="21" rx="2.9400000000000004" fill="#2F241D"/>
  <rect x="355" y="523" width="21" height="21" rx="2.9400000000000004" fill="#2F241D"/>
  <rect x="397" y="523" width="21" height="21" rx="2.9400000000000004" fill="#2F241D"/>
  <rect x="418" y="523" width="21" height="21" rx="2.9400000000000004" fill="#2F241D"/>
  <rect x="460" y="523" width="21" height="21" rx="2.9400000000000004" fill="#2F241D"/>
  <rect x="481" y="523" width="21" height="21" rx="2.9400000000000004" fill="#2F241D"/>
  <rect x="523" y="523" width="21" height="21" rx="2.9400000000000004" fill="#2F241D"/>
  <rect x="544" y="523" width="21" height="21" rx="2.9400000000000004" fill="#2F241D"/>
  <rect x="586" y="523" width="21" height="21" rx="2.9400000000000004" fill="#2F241D"/>
  <rect x="649" y="523" width="21" height="21" rx="2.9400000000000004" fill="#2F241D"/>
  <rect x="670" y="523" width="21" height="21" rx="2.9400000000000004" fill="#2F241D"/>
  <rect x="712" y="523" width="21" height="21" rx="2.9400000000000004" fill="#2F241D"/>
  <rect x="817" y="523" width="21" height="21" rx="2.9400000000000004" fill="#2F241D"/>
  <rect x="838" y="523" width="21" height="21" rx="2.9400000000000004" fill="#2F241D"/>
  <rect x="187" y="544" width="21" height="21" rx="2.9400000000000004" fill="#2F241D"/>
  <rect x="208" y="544" width="21" height="21" rx="2.9400000000000004" fill="#2F241D"/>
  <rect x="229" y="544" width="21" height="21" rx="2.9400000000000004" fill="#2F241D"/>
  <rect x="271" y="544" width="21" height="21" rx="2.9400000000000004" fill="#2F241D"/>
  <rect x="292" y="544" width="21" height="21" rx="2.9400000000000004" fill="#2F241D"/>
  <rect x="313" y="544" width="21" height="21" rx="2.9400000000000004" fill="#2F241D"/>
  <rect x="397" y="544" width="21" height="21" rx="2.9400000000000004" fill="#2F241D"/>
  <rect x="481" y="544" width="21" height="21" rx="2.9400000000000004" fill="#2F241D"/>
  <rect x="502" y="544" width="21" height="21" rx="2.9400000000000004" fill="#2F241D"/>
  <rect x="544" y="544" width="21" height="21" rx="2.9400000000000004" fill="#2F241D"/>
  <rect x="565" y="544" width="21" height="21" rx="2.9400000000000004" fill="#2F241D"/>
  <rect x="586" y="544" width="21" height="21" rx="2.9400000000000004" fill="#2F241D"/>
  <rect x="607" y="544" width="21" height="21" rx="2.9400000000000004" fill="#2F241D"/>
  <rect x="628" y="544" width="21" height="21" rx="2.9400000000000004" fill="#2F241D"/>
  <rect x="691" y="544" width="21" height="21" rx="2.9400000000000004" fill="#2F241D"/>
  <rect x="712" y="544" width="21" height="21" rx="2.9400000000000004" fill="#2F241D"/>
  <rect x="754" y="544" width="21" height="21" rx="2.9400000000000004" fill="#2F241D"/>
  <rect x="796" y="544" width="21" height="21" rx="2.9400000000000004" fill="#2F241D"/>
  <rect x="817" y="544" width="21" height="21" rx="2.9400000000000004" fill="#2F241D"/>
  <rect x="229" y="565" width="21" height="21" rx="2.9400000000000004" fill="#2F241D"/>
  <rect x="250" y="565" width="21" height="21" rx="2.9400000000000004" fill="#2F241D"/>
  <rect x="271" y="565" width="21" height="21" rx="2.9400000000000004" fill="#2F241D"/>
  <rect x="313" y="565" width="21" height="21" rx="2.9400000000000004" fill="#2F241D"/>
  <rect x="334" y="565" width="21" height="21" rx="2.9400000000000004" fill="#2F241D"/>
  <rect x="355" y="565" width="21" height="21" rx="2.9400000000000004" fill="#2F241D"/>
  <rect x="376" y="565" width="21" height="21" rx="2.9400000000000004" fill="#2F241D"/>
  <rect x="418" y="565" width="21" height="21" rx="2.9400000000000004" fill="#2F241D"/>
  <rect x="439" y="565" width="21" height="21" rx="2.9400000000000004" fill="#2F241D"/>
  <rect x="460" y="565" width="21" height="21" rx="2.9400000000000004" fill="#2F241D"/>
  <rect x="481" y="565" width="21" height="21" rx="2.9400000000000004" fill="#2F241D"/>
  <rect x="502" y="565" width="21" height="21" rx="2.9400000000000004" fill="#2F241D"/>
  <rect x="607" y="565" width="21" height="21" rx="2.9400000000000004" fill="#2F241D"/>
  <rect x="628" y="565" width="21" height="21" rx="2.9400000000000004" fill="#2F241D"/>
  <rect x="649" y="565" width="21" height="21" rx="2.9400000000000004" fill="#2F241D"/>
  <rect x="670" y="565" width="21" height="21" rx="2.9400000000000004" fill="#2F241D"/>
  <rect x="712" y="565" width="21" height="21" rx="2.9400000000000004" fill="#2F241D"/>
  <rect x="754" y="565" width="21" height="21" rx="2.9400000000000004" fill="#2F241D"/>
  <rect x="775" y="565" width="21" height="21" rx="2.9400000000000004" fill="#2F241D"/>
  <rect x="796" y="565" width="21" height="21" rx="2.9400000000000004" fill="#2F241D"/>
  <rect x="166" y="586" width="21" height="21" rx="2.9400000000000004" fill="#2F241D"/>
  <rect x="187" y="586" width="21" height="21" rx="2.9400000000000004" fill="#2F241D"/>
  <rect x="271" y="586" width="21" height="21" rx="2.9400000000000004" fill="#2F241D"/>
  <rect x="292" y="586" width="21" height="21" rx="2.9400000000000004" fill="#2F241D"/>
  <rect x="313" y="586" width="21" height="21" rx="2.9400000000000004" fill="#2F241D"/>
  <rect x="376" y="586" width="21" height="21" rx="2.9400000000000004" fill="#2F241D"/>
  <rect x="439" y="586" width="21" height="21" rx="2.9400000000000004" fill="#2F241D"/>
  <rect x="481" y="586" width="21" height="21" rx="2.9400000000000004" fill="#2F241D"/>
  <rect x="544" y="586" width="21" height="21" rx="2.9400000000000004" fill="#2F241D"/>
  <rect x="565" y="586" width="21" height="21" rx="2.9400000000000004" fill="#2F241D"/>
  <rect x="586" y="586" width="21" height="21" rx="2.9400000000000004" fill="#2F241D"/>
  <rect x="628" y="586" width="21" height="21" rx="2.9400000000000004" fill="#2F241D"/>
  <rect x="691" y="586" width="21" height="21" rx="2.9400000000000004" fill="#2F241D"/>
  <rect x="712" y="586" width="21" height="21" rx="2.9400000000000004" fill="#2F241D"/>
  <rect x="733" y="586" width="21" height="21" rx="2.9400000000000004" fill="#2F241D"/>
  <rect x="754" y="586" width="21" height="21" rx="2.9400000000000004" fill="#2F241D"/>
  <rect x="775" y="586" width="21" height="21" rx="2.9400000000000004" fill="#2F241D"/>
  <rect x="166" y="607" width="21" height="21" rx="2.9400000000000004" fill="#2F241D"/>
  <rect x="187" y="607" width="21" height="21" rx="2.9400000000000004" fill="#2F241D"/>
  <rect x="250" y="607" width="21" height="21" rx="2.9400000000000004" fill="#2F241D"/>
  <rect x="313" y="607" width="21" height="21" rx="2.9400000000000004" fill="#2F241D"/>
  <rect x="397" y="607" width="21" height="21" rx="2.9400000000000004" fill="#2F241D"/>
  <rect x="439" y="607" width="21" height="21" rx="2.9400000000000004" fill="#2F241D"/>
  <rect x="460" y="607" width="21" height="21" rx="2.9400000000000004" fill="#2F241D"/>
  <rect x="481" y="607" width="21" height="21" rx="2.9400000000000004" fill="#2F241D"/>
  <rect x="523" y="607" width="21" height="21" rx="2.9400000000000004" fill="#2F241D"/>
  <rect x="544" y="607" width="21" height="21" rx="2.9400000000000004" fill="#2F241D"/>
  <rect x="586" y="607" width="21" height="21" rx="2.9400000000000004" fill="#2F241D"/>
  <rect x="607" y="607" width="21" height="21" rx="2.9400000000000004" fill="#2F241D"/>
  <rect x="628" y="607" width="21" height="21" rx="2.9400000000000004" fill="#2F241D"/>
  <rect x="670" y="607" width="21" height="21" rx="2.9400000000000004" fill="#2F241D"/>
  <rect x="733" y="607" width="21" height="21" rx="2.9400000000000004" fill="#2F241D"/>
  <rect x="838" y="607" width="21" height="21" rx="2.9400000000000004" fill="#2F241D"/>
  <rect x="166" y="628" width="21" height="21" rx="2.9400000000000004" fill="#2F241D"/>
  <rect x="208" y="628" width="21" height="21" rx="2.9400000000000004" fill="#2F241D"/>
  <rect x="229" y="628" width="21" height="21" rx="2.9400000000000004" fill="#2F241D"/>
  <rect x="292" y="628" width="21" height="21" rx="2.9400000000000004" fill="#2F241D"/>
  <rect x="313" y="628" width="21" height="21" rx="2.9400000000000004" fill="#2F241D"/>
  <rect x="334" y="628" width="21" height="21" rx="2.9400000000000004" fill="#2F241D"/>
  <rect x="355" y="628" width="21" height="21" rx="2.9400000000000004" fill="#2F241D"/>
  <rect x="397" y="628" width="21" height="21" rx="2.9400000000000004" fill="#2F241D"/>
  <rect x="460" y="628" width="21" height="21" rx="2.9400000000000004" fill="#2F241D"/>
  <rect x="523" y="628" width="21" height="21" rx="2.9400000000000004" fill="#2F241D"/>
  <rect x="565" y="628" width="21" height="21" rx="2.9400000000000004" fill="#2F241D"/>
  <rect x="586" y="628" width="21" height="21" rx="2.9400000000000004" fill="#2F241D"/>
  <rect x="607" y="628" width="21" height="21" rx="2.9400000000000004" fill="#2F241D"/>
  <rect x="796" y="628" width="21" height="21" rx="2.9400000000000004" fill="#2F241D"/>
  <rect x="817" y="628" width="21" height="21" rx="2.9400000000000004" fill="#2F241D"/>
  <rect x="166" y="649" width="21" height="21" rx="2.9400000000000004" fill="#2F241D"/>
  <rect x="208" y="649" width="21" height="21" rx="2.9400000000000004" fill="#2F241D"/>
  <rect x="229" y="649" width="21" height="21" rx="2.9400000000000004" fill="#2F241D"/>
  <rect x="271" y="649" width="21" height="21" rx="2.9400000000000004" fill="#2F241D"/>
  <rect x="313" y="649" width="21" height="21" rx="2.9400000000000004" fill="#2F241D"/>
  <rect x="376" y="649" width="21" height="21" rx="2.9400000000000004" fill="#2F241D"/>
  <rect x="502" y="649" width="21" height="21" rx="2.9400000000000004" fill="#2F241D"/>
  <rect x="523" y="649" width="21" height="21" rx="2.9400000000000004" fill="#2F241D"/>
  <rect x="544" y="649" width="21" height="21" rx="2.9400000000000004" fill="#2F241D"/>
  <rect x="607" y="649" width="21" height="21" rx="2.9400000000000004" fill="#2F241D"/>
  <rect x="628" y="649" width="21" height="21" rx="2.9400000000000004" fill="#2F241D"/>
  <rect x="670" y="649" width="21" height="21" rx="2.9400000000000004" fill="#2F241D"/>
  <rect x="733" y="649" width="21" height="21" rx="2.9400000000000004" fill="#2F241D"/>
  <rect x="775" y="649" width="21" height="21" rx="2.9400000000000004" fill="#2F241D"/>
  <rect x="796" y="649" width="21" height="21" rx="2.9400000000000004" fill="#2F241D"/>
  <rect x="166" y="670" width="21" height="21" rx="2.9400000000000004" fill="#2F241D"/>
  <rect x="250" y="670" width="21" height="21" rx="2.9400000000000004" fill="#2F241D"/>
  <rect x="292" y="670" width="21" height="21" rx="2.9400000000000004" fill="#2F241D"/>
  <rect x="376" y="670" width="21" height="21" rx="2.9400000000000004" fill="#2F241D"/>
  <rect x="439" y="670" width="21" height="21" rx="2.9400000000000004" fill="#2F241D"/>
  <rect x="460" y="670" width="21" height="21" rx="2.9400000000000004" fill="#2F241D"/>
  <rect x="481" y="670" width="21" height="21" rx="2.9400000000000004" fill="#2F241D"/>
  <rect x="628" y="670" width="21" height="21" rx="2.9400000000000004" fill="#2F241D"/>
  <rect x="670" y="670" width="21" height="21" rx="2.9400000000000004" fill="#2F241D"/>
  <rect x="691" y="670" width="21" height="21" rx="2.9400000000000004" fill="#2F241D"/>
  <rect x="712" y="670" width="21" height="21" rx="2.9400000000000004" fill="#2F241D"/>
  <rect x="733" y="670" width="21" height="21" rx="2.9400000000000004" fill="#2F241D"/>
  <rect x="754" y="670" width="21" height="21" rx="2.9400000000000004" fill="#2F241D"/>
  <rect x="775" y="670" width="21" height="21" rx="2.9400000000000004" fill="#2F241D"/>
  <rect x="334" y="691" width="21" height="21" rx="2.9400000000000004" fill="#2F241D"/>
  <rect x="376" y="691" width="21" height="21" rx="2.9400000000000004" fill="#2F241D"/>
  <rect x="418" y="691" width="21" height="21" rx="2.9400000000000004" fill="#2F241D"/>
  <rect x="439" y="691" width="21" height="21" rx="2.9400000000000004" fill="#2F241D"/>
  <rect x="481" y="691" width="21" height="21" rx="2.9400000000000004" fill="#2F241D"/>
  <rect x="544" y="691" width="21" height="21" rx="2.9400000000000004" fill="#2F241D"/>
  <rect x="628" y="691" width="21" height="21" rx="2.9400000000000004" fill="#2F241D"/>
  <rect x="649" y="691" width="21" height="21" rx="2.9400000000000004" fill="#2F241D"/>
  <rect x="670" y="691" width="21" height="21" rx="2.9400000000000004" fill="#2F241D"/>
  <rect x="754" y="691" width="21" height="21" rx="2.9400000000000004" fill="#2F241D"/>
  <rect x="775" y="691" width="21" height="21" rx="2.9400000000000004" fill="#2F241D"/>
  <rect x="796" y="691" width="21" height="21" rx="2.9400000000000004" fill="#2F241D"/>
  <rect x="838" y="691" width="21" height="21" rx="2.9400000000000004" fill="#2F241D"/>
  <rect x="418" y="712" width="21" height="21" rx="2.9400000000000004" fill="#2F241D"/>
  <rect x="439" y="712" width="21" height="21" rx="2.9400000000000004" fill="#2F241D"/>
  <rect x="460" y="712" width="21" height="21" rx="2.9400000000000004" fill="#2F241D"/>
  <rect x="523" y="712" width="21" height="21" rx="2.9400000000000004" fill="#2F241D"/>
  <rect x="544" y="712" width="21" height="21" rx="2.9400000000000004" fill="#2F241D"/>
  <rect x="565" y="712" width="21" height="21" rx="2.9400000000000004" fill="#2F241D"/>
  <rect x="586" y="712" width="21" height="21" rx="2.9400000000000004" fill="#2F241D"/>
  <rect x="628" y="712" width="21" height="21" rx="2.9400000000000004" fill="#2F241D"/>
  <rect x="649" y="712" width="21" height="21" rx="2.9400000000000004" fill="#2F241D"/>
  <rect x="670" y="712" width="21" height="21" rx="2.9400000000000004" fill="#2F241D"/>
  <rect x="712" y="712" width="21" height="21" rx="2.9400000000000004" fill="#2F241D"/>
  <rect x="754" y="712" width="21" height="21" rx="2.9400000000000004" fill="#2F241D"/>
  <rect x="775" y="712" width="21" height="21" rx="2.9400000000000004" fill="#2F241D"/>
  <rect x="796" y="712" width="21" height="21" rx="2.9400000000000004" fill="#2F241D"/>
  <rect x="817" y="712" width="21" height="21" rx="2.9400000000000004" fill="#2F241D"/>
  <rect x="376" y="733" width="21" height="21" rx="2.9400000000000004" fill="#2F241D"/>
  <rect x="397" y="733" width="21" height="21" rx="2.9400000000000004" fill="#2F241D"/>
  <rect x="460" y="733" width="21" height="21" rx="2.9400000000000004" fill="#2F241D"/>
  <rect x="544" y="733" width="21" height="21" rx="2.9400000000000004" fill="#2F241D"/>
  <rect x="565" y="733" width="21" height="21" rx="2.9400000000000004" fill="#2F241D"/>
  <rect x="586" y="733" width="21" height="21" rx="2.9400000000000004" fill="#2F241D"/>
  <rect x="649" y="733" width="21" height="21" rx="2.9400000000000004" fill="#2F241D"/>
  <rect x="670" y="733" width="21" height="21" rx="2.9400000000000004" fill="#2F241D"/>
  <rect x="754" y="733" width="21" height="21" rx="2.9400000000000004" fill="#2F241D"/>
  <rect x="796" y="733" width="21" height="21" rx="2.9400000000000004" fill="#2F241D"/>
  <rect x="817" y="733" width="21" height="21" rx="2.9400000000000004" fill="#2F241D"/>
  <rect x="838" y="733" width="21" height="21" rx="2.9400000000000004" fill="#2F241D"/>
  <rect x="334" y="754" width="21" height="21" rx="2.9400000000000004" fill="#2F241D"/>
  <rect x="376" y="754" width="21" height="21" rx="2.9400000000000004" fill="#2F241D"/>
  <rect x="397" y="754" width="21" height="21" rx="2.9400000000000004" fill="#2F241D"/>
  <rect x="418" y="754" width="21" height="21" rx="2.9400000000000004" fill="#2F241D"/>
  <rect x="439" y="754" width="21" height="21" rx="2.9400000000000004" fill="#2F241D"/>
  <rect x="481" y="754" width="21" height="21" rx="2.9400000000000004" fill="#2F241D"/>
  <rect x="523" y="754" width="21" height="21" rx="2.9400000000000004" fill="#2F241D"/>
  <rect x="544" y="754" width="21" height="21" rx="2.9400000000000004" fill="#2F241D"/>
  <rect x="607" y="754" width="21" height="21" rx="2.9400000000000004" fill="#2F241D"/>
  <rect x="628" y="754" width="21" height="21" rx="2.9400000000000004" fill="#2F241D"/>
  <rect x="670" y="754" width="21" height="21" rx="2.9400000000000004" fill="#2F241D"/>
  <rect x="691" y="754" width="21" height="21" rx="2.9400000000000004" fill="#2F241D"/>
  <rect x="712" y="754" width="21" height="21" rx="2.9400000000000004" fill="#2F241D"/>
  <rect x="733" y="754" width="21" height="21" rx="2.9400000000000004" fill="#2F241D"/>
  <rect x="754" y="754" width="21" height="21" rx="2.9400000000000004" fill="#2F241D"/>
  <rect x="817" y="754" width="21" height="21" rx="2.9400000000000004" fill="#2F241D"/>
  <rect x="838" y="754" width="21" height="21" rx="2.9400000000000004" fill="#2F241D"/>
  <rect x="334" y="775" width="21" height="21" rx="2.9400000000000004" fill="#2F241D"/>
  <rect x="397" y="775" width="21" height="21" rx="2.9400000000000004" fill="#2F241D"/>
  <rect x="460" y="775" width="21" height="21" rx="2.9400000000000004" fill="#2F241D"/>
  <rect x="565" y="775" width="21" height="21" rx="2.9400000000000004" fill="#2F241D"/>
  <rect x="586" y="775" width="21" height="21" rx="2.9400000000000004" fill="#2F241D"/>
  <rect x="649" y="775" width="21" height="21" rx="2.9400000000000004" fill="#2F241D"/>
  <rect x="691" y="775" width="21" height="21" rx="2.9400000000000004" fill="#2F241D"/>
  <rect x="754" y="775" width="21" height="21" rx="2.9400000000000004" fill="#2F241D"/>
  <rect x="775" y="775" width="21" height="21" rx="2.9400000000000004" fill="#2F241D"/>
  <rect x="817" y="775" width="21" height="21" rx="2.9400000000000004" fill="#2F241D"/>
  <rect x="334" y="796" width="21" height="21" rx="2.9400000000000004" fill="#2F241D"/>
  <rect x="397" y="796" width="21" height="21" rx="2.9400000000000004" fill="#2F241D"/>
  <rect x="439" y="796" width="21" height="21" rx="2.9400000000000004" fill="#2F241D"/>
  <rect x="502" y="796" width="21" height="21" rx="2.9400000000000004" fill="#2F241D"/>
  <rect x="565" y="796" width="21" height="21" rx="2.9400000000000004" fill="#2F241D"/>
  <rect x="586" y="796" width="21" height="21" rx="2.9400000000000004" fill="#2F241D"/>
  <rect x="628" y="796" width="21" height="21" rx="2.9400000000000004" fill="#2F241D"/>
  <rect x="649" y="796" width="21" height="21" rx="2.9400000000000004" fill="#2F241D"/>
  <rect x="691" y="796" width="21" height="21" rx="2.9400000000000004" fill="#2F241D"/>
  <rect x="712" y="796" width="21" height="21" rx="2.9400000000000004" fill="#2F241D"/>
  <rect x="523" y="817" width="21" height="21" rx="2.9400000000000004" fill="#2F241D"/>
  <rect x="544" y="817" width="21" height="21" rx="2.9400000000000004" fill="#2F241D"/>
  <rect x="586" y="817" width="21" height="21" rx="2.9400000000000004" fill="#2F241D"/>
  <rect x="607" y="817" width="21" height="21" rx="2.9400000000000004" fill="#2F241D"/>
  <rect x="628" y="817" width="21" height="21" rx="2.9400000000000004" fill="#2F241D"/>
  <rect x="649" y="817" width="21" height="21" rx="2.9400000000000004" fill="#2F241D"/>
  <rect x="691" y="817" width="21" height="21" rx="2.9400000000000004" fill="#2F241D"/>
  <rect x="733" y="817" width="21" height="21" rx="2.9400000000000004" fill="#2F241D"/>
  <rect x="775" y="817" width="21" height="21" rx="2.9400000000000004" fill="#2F241D"/>
  <rect x="355" y="838" width="21" height="21" rx="2.9400000000000004" fill="#2F241D"/>
  <rect x="397" y="838" width="21" height="21" rx="2.9400000000000004" fill="#2F241D"/>
  <rect x="418" y="838" width="21" height="21" rx="2.9400000000000004" fill="#2F241D"/>
  <rect x="460" y="838" width="21" height="21" rx="2.9400000000000004" fill="#2F241D"/>
  <rect x="502" y="838" width="21" height="21" rx="2.9400000000000004" fill="#2F241D"/>
  <rect x="586" y="838" width="21" height="21" rx="2.9400000000000004" fill="#2F241D"/>
  <rect x="628" y="838" width="21" height="21" rx="2.9400000000000004" fill="#2F241D"/>
  <rect x="649" y="838" width="21" height="21" rx="2.9400000000000004" fill="#2F241D"/>
  <rect x="670" y="838" width="21" height="21" rx="2.9400000000000004" fill="#2F241D"/>
  <rect x="691" y="838" width="21" height="21" rx="2.9400000000000004" fill="#2F241D"/>
  <rect x="796" y="838" width="21" height="21" rx="2.9400000000000004" fill="#2F241D"/>
  <rect x="817" y="838" width="21" height="21" rx="2.9400000000000004" fill="#2F241D"/>
<rect x="166" y="166" width="147" height="147" rx="26.25" fill="#2F241D"/>
<rect x="187" y="187" width="105" height="105" rx="21" fill="#FFFDF9"/>
<rect x="208" y="208" width="63" height="63" rx="15.12" fill="#2F241D"/>
<rect x="712" y="166" width="147" height="147" rx="26.25" fill="#2F241D"/>
<rect x="733" y="187" width="105" height="105" rx="21" fill="#FFFDF9"/>
<rect x="754" y="208" width="63" height="63" rx="15.12" fill="#2F241D"/>
<rect x="166" y="712" width="147" height="147" rx="26.25" fill="#2F241D"/>
<rect x="187" y="733" width="105" height="105" rx="21" fill="#FFFDF9"/>
<rect x="208" y="754" width="63" height="63" rx="15.12" fill="#2F241D"/>
</svg>