<?xml version="1.0" encoding="UTF-8"?>
<svg width="1024" height="1024" viewBox="0 0 1024 1024" fill="none" xmlns="http://www.w3.org/2000/svg">
  <defs>
    <filter id="card-shadow" x="0" y="0" width="1024" height="1024" filterUnits="userSpaceOnUse" color-interpolation-filters="sRGB">
      <feDropShadow dx="0" dy="18" stdDeviation="18" flood-color="#2F241D" flood-opacity="0.12"/>
    </filter>
  </defs>
  <rect width="1024" height="1024" rx="84" fill="#F8FCF8"/>
  <g filter="url(#card-shadow)">
    <rect x="64" y="64" width="896" height="896" rx="72" fill="#FFFDFA" stroke="#DCECDD" stroke-width="6"/>
  </g>
  <rect x="145" y="145" width="734" height="734" rx="40" fill="#FFFFFF"/>
  <rect x="161" y="161" width="702" height="702" rx="30" fill="#FFFFFF" stroke="#D9EEDC" stroke-width="2"/>
  <circle cx="368" cy="188" r="6.12" fill="#1F2A22"/>
  <circle cx="386" cy="188" r="6.12" fill="#1F2A22"/>
  <circle cx="404" cy="188" r="6.12" fill="#1F2A22"/>
  <circle cx="422" cy="188" r="6.12" fill="#1F2A22"/>
  <circle cx="440" cy="188" r="6.12" fill="#1F2A22"/>
  <circle cx="512" cy="188" r="6.12" fill="#1F2A22"/>
  <circle cx="530" cy="188" r="6.12" fill="#1F2A22"/>
  <circle cx="548" cy="188" r="6.12" fill="#1F2A22"/>
  <circle cx="584" cy="188" r="6.12" fill="#1F2A22"/>
  <circle cx="602" cy="188" r="6.12" fill="#1F2A22"/>
  <circle cx="620" cy="188" r="6.12" fill="#1F2A22"/>
  <circle cx="656" cy="188" r="6.12" fill="#1F2A22"/>
  <circle cx="332" cy="206" r="6.12" fill="#1F2A22"/>
  <circle cx="368" cy="206" r="6.12" fill="#1F2A22"/>
  <circle cx="404" cy="206" r="6.12" fill="#1F2A22"/>
  <circle cx="494" cy="206" r="6.12" fill="#1F2A22"/>
  <circle cx="530" cy="206" r="6.12" fill="#1F2A22"/>
  <circle cx="548" cy="206" r="6.12" fill="#1F2A22"/>
  <circle cx="332" cy="224" r="6.12" fill="#1F2A22"/>
  <circle cx="386" cy="224" r="6.12" fill="#1F2A22"/>
  <circle cx="404" cy="224" r="6.12" fill="#1F2A22"/>
  <circle cx="422" cy="224" r="6.12" fill="#1F2A22"/>
  <circle cx="440" cy="224" r="6.12" fill="#1F2A22"/>
  <circle cx="476" cy="224" r="6.12" fill="#1F2A22"/>
  <circle cx="494" cy="224" r="6.12" fill="#1F2A22"/>
  <circle cx="512" cy="224" r="6.12" fill="#1F2A22"/>
  <circle cx="530" cy="224" r="6.12" fill="#1F2A22"/>
  <circle cx="584" cy="224" r="6.12" fill="#1F2A22"/>
  <circle cx="602" cy="224" r="6.12" fill="#1F2A22"/>
  <circle cx="638" cy="224" r="6.12" fill="#1F2A22"/>
  <circle cx="674" cy="224" r="6.12" fill="#1F2A22"/>
  <circle cx="332" cy="242" r="6.12" fill="#1F2A22"/>
  <circle cx="368" cy="242" r="6.12" fill="#1F2A22"/>
  <circle cx="404" cy="242" r="6.12" fill="#1F2A22"/>
  <circle cx="422" cy="242" r="6.12" fill="#1F2A22"/>
  <circle cx="458" cy="242" r="6.12" fill="#1F2A22"/>
  <circle cx="548" cy="242" r="6.12" fill="#1F2A22"/>
  <circle cx="584" cy="242" r="6.12" fill="#1F2A22"/>
  <circle cx="620" cy="242" r="6.12" fill="#1F2A22"/>
  <circle cx="638" cy="242" r="6.12" fill="#1F2A22"/>
  <circle cx="656" cy="242" r="6.12" fill="#1F2A22"/>
  <circle cx="674" cy="242" r="6.12" fill="#1F2A22"/>
  <circle cx="332" cy="260" r="6.12" fill="#1F2A22"/>
  <circle cx="368" cy="260" r="6.12" fill="#1F2A22"/>
  <circle cx="386" cy="260" r="6.12" fill="#1F2A22"/>
  <circle cx="404" cy="260" r="6.12" fill="#1F2A22"/>
  <circle cx="440" cy="260" r="6.12" fill="#1F2A22"/>
  <circle cx="458" cy="260" r="6.12" fill="#1F2A22"/>
  <circle cx="476" cy="260" r="6.12" fill="#1F2A22"/>
  <circle cx="494" cy="260" r="6.12" fill="#1F2A22"/>
  <circle cx="530" cy="260" r="6.12" fill="#1F2A22"/>
  <circle cx="602" cy="260" r="6.12" fill="#1F2A22"/>
  <circle cx="638" cy="260" r="6.12" fill="#1F2A22"/>
  <circle cx="656" cy="260" r="6.12" fill="#1F2A22"/>
  <circle cx="692" cy="260" r="6.12" fill="#1F2A22"/>
  <circle cx="332" cy="278" r="6.12" fill="#1F2A22"/>
  <circle cx="476" cy="278" r="6.12" fill="#1F2A22"/>
  <circle cx="512" cy="278" r="6.12" fill="#1F2A22"/>
  <circle cx="530" cy="278" r="6.12" fill="#1F2A22"/>
  <circle cx="548" cy="278" r="6.12" fill="#1F2A22"/>
  <circle cx="566" cy="278" r="6.12" fill="#1F2A22"/>
  <circle cx="692" cy="278" r="6.12" fill="#1F2A22"/>
  <circle cx="332" cy="296" r="6.12" fill="#1F2A22"/>
  <circle cx="368" cy="296" r="6.12" fill="#1F2A22"/>
  <circle cx="404" cy="296" r="6.12" fill="#1F2A22"/>
  <circle cx="440" cy="296" r="6.12" fill="#1F2A22"/>
  <circle cx="476" cy="296" r="6.12" fill="#1F2A22"/>
  <circle cx="512" cy="296" r="6.12" fill="#1F2A22"/>
  <circle cx="548" cy="296" r="6.12" fill="#1F2A22"/>
  <circle cx="584" cy="296" r="6.12" fill="#1F2A22"/>
  <circle cx="620" cy="296" r="6.12" fill="#1F2A22"/>
  <circle cx="656" cy="296" r="6.12" fill="#1F2A22"/>
  <circle cx="692" cy="296" r="6.12" fill="#1F2A22"/>
  <circle cx="368" cy="314" r="6.12" fill="#1F2A22"/>
  <circle cx="386" cy="314" r="6.12" fill="#1F2A22"/>
  <circle cx="404" cy="314" r="6.12" fill="#1F2A22"/>
  <circle cx="476" cy="314" r="6.12" fill="#1F2A22"/>
  <circle cx="548" cy="314" r="6.12" fill="#1F2A22"/>
  <circle cx="566" cy="314" r="6.12" fill="#1F2A22"/>
  <circle cx="584" cy="314" r="6.12" fill="#1F2A22"/>
  <circle cx="602" cy="314" r="6.12" fill="#1F2A22"/>
  <circle cx="620" cy="314" r="6.12" fill="#1F2A22"/>
  <circle cx="656" cy="314" r="6.12" fill="#1F2A22"/>
  <circle cx="674" cy="314" r="6.12" fill="#1F2A22"/>
  <circle cx="692" cy="314" r="6.12" fill="#1F2A22"/>
  <circle cx="224" cy="332" r="6.12" fill="#1F2A22"/>
  <circle cx="278" cy="332" r="6.12" fill="#1F2A22"/>
  <circle cx="296" cy="332" r="6.12" fill="#1F2A22"/>
  <circle cx="314" cy="332" r="6.12" fill="#1F2A22"/>
  <circle cx="332" cy="332" r="6.12" fill="#1F2A22"/>
  <circle cx="368" cy="332" r="6.12" fill="#1F2A22"/>
  <circle cx="386" cy="332" r="6.12" fill="#1F2A22"/>
  <circle cx="422" cy="332" r="6.12" fill="#1F2A22"/>
  <circle cx="440" cy="332" r="6.12" fill="#1F2A22"/>
  <circle cx="458" cy="332" r="6.12" fill="#1F2A22"/>
  <circle cx="512" cy="332" r="6.12" fill="#1F2A22"/>
  <circle cx="530" cy="332" r="6.12" fill="#1F2A22"/>
  <circle cx="566" cy="332" r="6.12" fill="#1F2A22"/>
  <circle cx="602" cy="332" r="6.12" fill="#1F2A22"/>
  <circle cx="638" cy="332" r="6.12" fill="#1F2A22"/>
  <circle cx="656" cy="332" r="6.12" fill="#1F2A22"/>
  <circle cx="692" cy="332" r="6.12" fill="#1F2A22"/>
  <circle cx="710" cy="332" r="6.12" fill="#1F2A22"/>
  <circle cx="746" cy="332" r="6.12" fill="#1F2A22"/>
  <circle cx="764" cy="332" r="6.12" fill="#1F2A22"/>
  <circle cx="782" cy="332" r="6.12" fill="#1F2A22"/>
  <circle cx="800" cy="332" r="6.12" fill="#1F2A22"/>
  <circle cx="818" cy="332" r="6.12" fill="#1F2A22"/>
  <circle cx="188" cy="350" r="6.12" fill="#1F2A22"/>
  <circle cx="224" cy="350" r="6.12" fill="#1F2A22"/>
  <circle cx="242" cy="350" r="6.12" fill="#1F2A22"/>
  <circle cx="260" cy="350" r="6.12" fill="#1F2A22"/>
  <circle cx="314" cy="350" r="6.12" fill="#1F2A22"/>
  <circle cx="332" cy="350" r="6.12" fill="#1F2A22"/>
  <circle cx="368" cy="350" r="6.12" fill="#1F2A22"/>
  <circle cx="404" cy="350" r="6.12" fill="#1F2A22"/>
  <circle cx="440" cy="350" r="6.12" fill="#1F2A22"/>
  <circle cx="458" cy="350" r="6.12" fill="#1F2A22"/>
  <circle cx="476" cy="350" r="6.12" fill="#1F2A22"/>
  <circle cx="548" cy="350" r="6.12" fill="#1F2A22"/>
  <circle cx="602" cy="350" r="6.12" fill="#1F2A22"/>
  <circle cx="620" cy="350" r="6.12" fill="#1F2A22"/>
  <circle cx="638" cy="350" r="6.12" fill="#1F2A22"/>
  <circle cx="656" cy="350" r="6.12" fill="#1F2A22"/>
  <circle cx="692" cy="350" r="6.12" fill="#1F2A22"/>
  <circle cx="728" cy="350" r="6.12" fill="#1F2A22"/>
  <circle cx="746" cy="350" r="6.12" fill="#1F2A22"/>
  <circle cx="836" cy="350" r="6.12" fill="#1F2A22"/>
  <circle cx="242" cy="368" r="6.12" fill="#1F2A22"/>
  <circle cx="260" cy="368" r="6.12" fill="#1F2A22"/>
  <circle cx="296" cy="368" r="6.12" fill="#1F2A22"/>
  <circle cx="314" cy="368" r="6.12" fill="#1F2A22"/>
  <circle cx="404" cy="368" r="6.12" fill="#1F2A22"/>
  <circle cx="440" cy="368" r="6.12" fill="#1F2A22"/>
  <circle cx="458" cy="368" r="6.12" fill="#1F2A22"/>
  <circle cx="476" cy="368" r="6.12" fill="#1F2A22"/>
  <circle cx="512" cy="368" r="6.12" fill="#1F2A22"/>
  <circle cx="548" cy="368" r="6.12" fill="#1F2A22"/>
  <circle cx="566" cy="368" r="6.12" fill="#1F2A22"/>
  <circle cx="584" cy="368" r="6.12" fill="#1F2A22"/>
  <circle cx="692" cy="368" r="6.12" fill="#1F2A22"/>
  <circle cx="710" cy="368" r="6.12" fill="#1F2A22"/>
  <circle cx="728" cy="368" r="6.12" fill="#1F2A22"/>
  <circle cx="746" cy="368" r="6.12" fill="#1F2A22"/>
  <circle cx="782" cy="368" r="6.12" fill="#1F2A22"/>
  <circle cx="836" cy="368" r="6.12" fill="#1F2A22"/>
  <circle cx="206" cy="386" r="6.12" fill="#1F2A22"/>
  <circle cx="314" cy="386" r="6.12" fill="#1F2A22"/>
  <circle cx="332" cy="386" r="6.12" fill="#1F2A22"/>
  <circle cx="350" cy="386" r="6.12" fill="#1F2A22"/>
  <circle cx="368" cy="386" r="6.12" fill="#1F2A22"/>
  <circle cx="458" cy="386" r="6.12" fill="#1F2A22"/>
  <circle cx="512" cy="386" r="6.12" fill="#1F2A22"/>
  <circle cx="530" cy="386" r="6.12" fill="#1F2A22"/>
  <circle cx="548" cy="386" r="6.12" fill="#1F2A22"/>
  <circle cx="566" cy="386" r="6.12" fill="#1F2A22"/>
  <circle cx="656" cy="386" r="6.12" fill="#1F2A22"/>
  <circle cx="674" cy="386" r="6.12" fill="#1F2A22"/>
  <circle cx="692" cy="386" r="6.12" fill="#1F2A22"/>
  <circle cx="782" cy="386" r="6.12" fill="#1F2A22"/>
  <circle cx="818" cy="386" r="6.12" fill="#1F2A22"/>
  <circle cx="188" cy="404" r="6.12" fill="#1F2A22"/>
  <circle cx="242" cy="404" r="6.12" fill="#1F2A22"/>
  <circle cx="260" cy="404" r="6.12" fill="#1F2A22"/>
  <circle cx="296" cy="404" r="6.12" fill="#1F2A22"/>
  <circle cx="314" cy="404" r="6.12" fill="#1F2A22"/>
  <circle cx="350" cy="404" r="6.12" fill="#1F2A22"/>
  <circle cx="368" cy="404" r="6.12" fill="#1F2A22"/>
  <circle cx="386" cy="404" r="6.12" fill="#1F2A22"/>
  <circle cx="422" cy="404" r="6.12" fill="#1F2A22"/>
  <circle cx="440" cy="404" r="6.12" fill="#1F2A22"/>
  <circle cx="458" cy="404" r="6.12" fill="#1F2A22"/>
  <circle cx="476" cy="404" r="6.12" fill="#1F2A22"/>
  <circle cx="494" cy="404" r="6.12" fill="#1F2A22"/>
  <circle cx="530" cy="404" r="6.12" fill="#1F2A22"/>
  <circle cx="620" cy="404" r="6.12" fill="#1F2A22"/>
  <circle cx="692" cy="404" r="6.12" fill="#1F2A22"/>
  <circle cx="728" cy="404" r="6.12" fill="#1F2A22"/>
  <circle cx="782" cy="404" r="6.12" fill="#1F2A22"/>
  <circle cx="836" cy="404" r="6.12" fill="#1F2A22"/>
  <circle cx="206" cy="422" r="6.12" fill="#1F2A22"/>
  <circle cx="242" cy="422" r="6.12" fill="#1F2A22"/>
  <circle cx="278" cy="422" r="6.12" fill="#1F2A22"/>
  <circle cx="314" cy="422" r="6.12" fill="#1F2A22"/>
  <circle cx="332" cy="422" r="6.12" fill="#1F2A22"/>
  <circle cx="350" cy="422" r="6.12" fill="#1F2A22"/>
  <circle cx="368" cy="422" r="6.12" fill="#1F2A22"/>
  <circle cx="386" cy="422" r="6.12" fill="#1F2A22"/>
  <circle cx="422" cy="422" r="6.12" fill="#1F2A22"/>
  <circle cx="458" cy="422" r="6.12" fill="#1F2A22"/>
  <circle cx="494" cy="422" r="6.12" fill="#1F2A22"/>
  <circle cx="548" cy="422" r="6.12" fill="#1F2A22"/>
  <circle cx="566" cy="422" r="6.12" fill="#1F2A22"/>
  <circle cx="584" cy="422" r="6.12" fill="#1F2A22"/>
  <circle cx="602" cy="422" r="6.12" fill="#1F2A22"/>
  <circle cx="674" cy="422" r="6.12" fill="#1F2A22"/>
  <circle cx="692" cy="422" r="6.12" fill="#1F2A22"/>
  <circle cx="710" cy="422" r="6.12" fill="#1F2A22"/>
  <circle cx="728" cy="422" r="6.12" fill="#1F2A22"/>
  <circle cx="746" cy="422" r="6.12" fill="#1F2A22"/>
  <circle cx="800" cy="422" r="6.12" fill="#1F2A22"/>
  <circle cx="836" cy="422" r="6.12" fill="#1F2A22"/>
  <circle cx="206" cy="440" r="6.12" fill="#1F2A22"/>
  <circle cx="224" cy="440" r="6.12" fill="#1F2A22"/>
  <circle cx="242" cy="440" r="6.12" fill="#1F2A22"/>
  <circle cx="296" cy="440" r="6.12" fill="#1F2A22"/>
  <circle cx="422" cy="440" r="6.12" fill="#1F2A22"/>
  <circle cx="602" cy="440" r="6.12" fill="#1F2A22"/>
  <circle cx="638" cy="440" r="6.12" fill="#1F2A22"/>
  <circle cx="674" cy="440" r="6.12" fill="#1F2A22"/>
  <circle cx="710" cy="440" r="6.12" fill="#1F2A22"/>
  <circle cx="728" cy="440" r="6.12" fill="#1F2A22"/>
  <circle cx="764" cy="440" r="6.12" fill="#1F2A22"/>
  <circle cx="782" cy="440" r="6.12" fill="#1F2A22"/>
  <circle cx="800" cy="440" r="6.12" fill="#1F2A22"/>
  <circle cx="818" cy="440" r="6.12" fill="#1F2A22"/>
  <circle cx="836" cy="440" r="6.12" fill="#1F2A22"/>
  <circle cx="224" cy="458" r="6.12" fill="#1F2A22"/>
  <circle cx="278" cy="458" r="6.12" fill="#1F2A22"/>
  <circle cx="404" cy="458" r="6.12" fill="#1F2A22"/>
  <circle cx="422" cy="458" r="6.12" fill="#1F2A22"/>
  <circle cx="602" cy="458" r="6.12" fill="#1F2A22"/>
  <circle cx="656" cy="458" r="6.12" fill="#1F2A22"/>
  <circle cx="692" cy="458" r="6.12" fill="#1F2A22"/>
  <circle cx="710" cy="458" r="6.12" fill="#1F2A22"/>
  <circle cx="782" cy="458" r="6.12" fill="#1F2A22"/>
  <circle cx="818" cy="458" r="6.12" fill="#1F2A22"/>
  <circle cx="206" cy="476" r="6.12" fill="#1F2A22"/>
  <circle cx="224" cy="476" r="6.12" fill="#1F2A22"/>
  <circle cx="242" cy="476" r="6.12" fill="#1F2A22"/>
  <circle cx="260" cy="476" r="6.12" fill="#1F2A22"/>
  <circle cx="278" cy="476" r="6.12" fill="#1F2A22"/>
  <circle cx="296" cy="476" r="6.12" fill="#1F2A22"/>
  <circle cx="368" cy="476" r="6.12" fill="#1F2A22"/>
  <circle cx="386" cy="476" r="6.12" fill="#1F2A22"/>
  <circle cx="422" cy="476" r="6.12" fill="#1F2A22"/>
  <circle cx="602" cy="476" r="6.12" fill="#1F2A22"/>
  <circle cx="620" cy="476" r="6.12" fill="#1F2A22"/>
  <circle cx="656" cy="476" r="6.12" fill="#1F2A22"/>
  <circle cx="692" cy="476" r="6.12" fill="#1F2A22"/>
  <circle cx="728" cy="476" r="6.12" fill="#1F2A22"/>
  <circle cx="746" cy="476" r="6.12" fill="#1F2A22"/>
  <circle cx="818" cy="476" r="6.12" fill="#1F2A22"/>
  <circle cx="836" cy="476" r="6.12" fill="#1F2A22"/>
  <circle cx="188" cy="494" r="6.12" fill="#1F2A22"/>
  <circle cx="224" cy="494" r="6.12" fill="#1F2A22"/>
  <circle cx="350" cy="494" r="6.12" fill="#1F2A22"/>
  <circle cx="404" cy="494" r="6.12" fill="#1F2A22"/>
  <circle cx="602" cy="494" r="6.12" fill="#1F2A22"/>
  <circle cx="638" cy="494" r="6.12" fill="#1F2A22"/>
  <circle cx="674" cy="494" r="6.12" fill="#1F2A22"/>
  <circle cx="692" cy="494" r="6.12" fill="#1F2A22"/>
  <circle cx="728" cy="494" r="6.12" fill="#1F2A22"/>
  <circle cx="746" cy="494" r="6.12" fill="#1F2A22"/>
  <circle cx="782" cy="494" r="6.12" fill="#1F2A22"/>
  <circle cx="800" cy="494" r="6.12" fill="#1F2A22"/>
  <circle cx="836" cy="494" r="6.12" fill="#1F2A22"/>
  <circle cx="188" cy="512" r="6.12" fill="#1F2A22"/>
  <circle cx="296" cy="512" r="6.12" fill="#1F2A22"/>
  <circle cx="314" cy="512" r="6.12" fill="#1F2A22"/>
  <circle cx="350" cy="512" r="6.12" fill="#1F2A22"/>
  <circle cx="386" cy="512" r="6.12" fill="#1F2A22"/>
  <circle cx="404" cy="512" r="6.12" fill="#1F2A22"/>
  <circle cx="422" cy="512" r="6.12" fill="#1F2A22"/>
  <circle cx="674" cy="512" r="6.12" fill="#1F2A22"/>
  <circle cx="692" cy="512" r="6.12" fill="#1F2A22"/>
  <circle cx="728" cy="512" r="6.12" fill="#1F2A22"/>
  <circle cx="746" cy="512" r="6.12" fill="#1F2A22"/>
  <circle cx="764" cy="512" r="6.12" fill="#1F2A22"/>
  <circle cx="782" cy="512" r="6.12" fill="#1F2A22"/>
  <circle cx="836" cy="512" r="6.12" fill="#1F2A22"/>
  <circle cx="224" cy="530" r="6.12" fill="#1F2A22"/>
  <circle cx="242" cy="530" r="6.12" fill="#1F2A22"/>
  <circle cx="260" cy="530" r="6.12" fill="#1F2A22"/>
  <circle cx="278" cy="530" r="6.12" fill="#1F2A22"/>
  <circle cx="314" cy="530" r="6.12" fill="#1F2A22"/>
  <circle cx="386" cy="530" r="6.12" fill="#1F2A22"/>
  <circle cx="404" cy="530" r="6.12" fill="#1F2A22"/>
  <circle cx="620" cy="530" r="6.12" fill="#1F2A22"/>
  <circle cx="764" cy="530" r="6.12" fill="#1F2A22"/>
  <circle cx="782" cy="530" r="6.12" fill="#1F2A22"/>
  <circle cx="818" cy="530" r="6.12" fill="#1F2A22"/>
  <circle cx="836" cy="530" r="6.12" fill="#1F2A22"/>
  <circle cx="224" cy="548" r="6.12" fill="#1F2A22"/>
  <circle cx="260" cy="548" r="6.12" fill="#1F2A22"/>
  <circle cx="296" cy="548" r="6.12" fill="#1F2A22"/>
  <circle cx="314" cy="548" r="6.12" fill="#1F2A22"/>
  <circle cx="332" cy="548" r="6.12" fill="#1F2A22"/>
  <circle cx="368" cy="548" r="6.12" fill="#1F2A22"/>
  <circle cx="404" cy="548" r="6.12" fill="#1F2A22"/>
  <circle cx="422" cy="548" r="6.12" fill="#1F2A22"/>
  <circle cx="674" cy="548" r="6.12" fill="#1F2A22"/>
  <circle cx="692" cy="548" r="6.12" fill="#1F2A22"/>
  <circle cx="710" cy="548" r="6.12" fill="#1F2A22"/>
  <circle cx="728" cy="548" r="6.12" fill="#1F2A22"/>
  <circle cx="782" cy="548" r="6.12" fill="#1F2A22"/>
  <circle cx="836" cy="548" r="6.12" fill="#1F2A22"/>
  <circle cx="368" cy="566" r="6.12" fill="#1F2A22"/>
  <circle cx="386" cy="566" r="6.12" fill="#1F2A22"/>
  <circle cx="620" cy="566" r="6.12" fill="#1F2A22"/>
  <circle cx="638" cy="566" r="6.12" fill="#1F2A22"/>
  <circle cx="674" cy="566" r="6.12" fill="#1F2A22"/>
  <circle cx="728" cy="566" r="6.12" fill="#1F2A22"/>
  <circle cx="746" cy="566" r="6.12" fill="#1F2A22"/>
  <circle cx="818" cy="566" r="6.12" fill="#1F2A22"/>
  <circle cx="836" cy="566" r="6.12" fill="#1F2A22"/>
  <circle cx="188" cy="584" r="6.12" fill="#1F2A22"/>
  <circle cx="296" cy="584" r="6.12" fill="#1F2A22"/>
  <circle cx="314" cy="584" r="6.12" fill="#1F2A22"/>
  <circle cx="368" cy="584" r="6.12" fill="#1F2A22"/>
  <circle cx="404" cy="584" r="6.12" fill="#1F2A22"/>
  <circle cx="422" cy="584" r="6.12" fill="#1F2A22"/>
  <circle cx="602" cy="584" r="6.12" fill="#1F2A22"/>
  <circle cx="620" cy="584" r="6.12" fill="#1F2A22"/>
  <circle cx="674" cy="584" r="6.12" fill="#1F2A22"/>
  <circle cx="692" cy="584" r="6.12" fill="#1F2A22"/>
  <circle cx="710" cy="584" r="6.12" fill="#1F2A22"/>
  <circle cx="728" cy="584" r="6.12" fill="#1F2A22"/>
  <circle cx="746" cy="584" r="6.12" fill="#1F2A22"/>
  <circle cx="764" cy="584" r="6.12" fill="#1F2A22"/>
  <circle cx="836" cy="584" r="6.12" fill="#1F2A22"/>
  <circle cx="188" cy="602" r="6.12" fill="#1F2A22"/>
  <circle cx="224" cy="602" r="6.12" fill="#1F2A22"/>
  <circle cx="278" cy="602" r="6.12" fill="#1F2A22"/>
  <circle cx="422" cy="602" r="6.12" fill="#1F2A22"/>
  <circle cx="476" cy="602" r="6.12" fill="#1F2A22"/>
  <circle cx="512" cy="602" r="6.12" fill="#1F2A22"/>
  <circle cx="530" cy="602" r="6.12" fill="#1F2A22"/>
  <circle cx="566" cy="602" r="6.12" fill="#1F2A22"/>
  <circle cx="602" cy="602" r="6.12" fill="#1F2A22"/>
  <circle cx="638" cy="602" r="6.12" fill="#1F2A22"/>
  <circle cx="674" cy="602" r="6.12" fill="#1F2A22"/>
  <circle cx="710" cy="602" r="6.12" fill="#1F2A22"/>
  <circle cx="746" cy="602" r="6.12" fill="#1F2A22"/>
  <circle cx="782" cy="602" r="6.12" fill="#1F2A22"/>
  <circle cx="242" cy="620" r="6.12" fill="#1F2A22"/>
  <circle cx="260" cy="620" r="6.12" fill="#1F2A22"/>
  <circle cx="296" cy="620" r="6.12" fill="#1F2A22"/>
  <circle cx="350" cy="620" r="6.12" fill="#1F2A22"/>
  <circle cx="386" cy="620" r="6.12" fill="#1F2A22"/>
  <circle cx="440" cy="620" r="6.12" fill="#1F2A22"/>
  <circle cx="458" cy="620" r="6.12" fill="#1F2A22"/>
  <circle cx="494" cy="620" r="6.12" fill="#1F2A22"/>
  <circle cx="512" cy="620" r="6.12" fill="#1F2A22"/>
  <circle cx="566" cy="620" r="6.12" fill="#1F2A22"/>
  <circle cx="620" cy="620" r="6.12" fill="#1F2A22"/>
  <circle cx="638" cy="620" r="6.12" fill="#1F2A22"/>
  <circle cx="692" cy="620" r="6.12" fill="#1F2A22"/>
  <circle cx="728" cy="620" r="6.12" fill="#1F2A22"/>
  <circle cx="782" cy="620" r="6.12" fill="#1F2A22"/>
  <circle cx="818" cy="620" r="6.12" fill="#1F2A22"/>
  <circle cx="836" cy="620" r="6.12" fill="#1F2A22"/>
  <circle cx="224" cy="638" r="6.12" fill="#1F2A22"/>
  <circle cx="260" cy="638" r="6.12" fill="#1F2A22"/>
  <circle cx="278" cy="638" r="6.12" fill="#1F2A22"/>
  <circle cx="350" cy="638" r="6.12" fill="#1F2A22"/>
  <circle cx="386" cy="638" r="6.12" fill="#1F2A22"/>
  <circle cx="404" cy="638" r="6.12" fill="#1F2A22"/>
  <circle cx="422" cy="638" r="6.12" fill="#1F2A22"/>
  <circle cx="440" cy="638" r="6.12" fill="#1F2A22"/>
  <circle cx="458" cy="638" r="6.12" fill="#1F2A22"/>
  <circle cx="476" cy="638" r="6.12" fill="#1F2A22"/>
  <circle cx="494" cy="638" r="6.12" fill="#1F2A22"/>
  <circle cx="530" cy="638" r="6.12" fill="#1F2A22"/>
  <circle cx="566" cy="638" r="6.12" fill="#1F2A22"/>
  <circle cx="584" cy="638" r="6.12" fill="#1F2A22"/>
  <circle cx="620" cy="638" r="6.12" fill="#1F2A22"/>
  <circle cx="728" cy="638" r="6.12" fill="#1F2A22"/>
  <circle cx="746" cy="638" r="6.12" fill="#1F2A22"/>
  <circle cx="782" cy="638" r="6.12" fill="#1F2A22"/>
  <circle cx="800" cy="638" r="6.12" fill="#1F2A22"/>
  <circle cx="836" cy="638" r="6.12" fill="#1F2A22"/>
  <circle cx="188" cy="656" r="6.12" fill="#1F2A22"/>
  <circle cx="206" cy="656" r="6.12" fill="#1F2A22"/>
  <circle cx="224" cy="656" r="6.12" fill="#1F2A22"/>
  <circle cx="260" cy="656" r="6.12" fill="#1F2A22"/>
  <circle cx="278" cy="656" r="6.12" fill="#1F2A22"/>
  <circle cx="296" cy="656" r="6.12" fill="#1F2A22"/>
  <circle cx="332" cy="656" r="6.12" fill="#1F2A22"/>
  <circle cx="350" cy="656" r="6.12" fill="#1F2A22"/>
  <circle cx="368" cy="656" r="6.12" fill="#1F2A22"/>
  <circle cx="404" cy="656" r="6.12" fill="#1F2A22"/>
  <circle cx="458" cy="656" r="6.12" fill="#1F2A22"/>
  <circle cx="494" cy="656" r="6.12" fill="#1F2A22"/>
  <circle cx="512" cy="656" r="6.12" fill="#1F2A22"/>
  <circle cx="548" cy="656" r="6.12" fill="#1F2A22"/>
  <circle cx="620" cy="656" r="6.12" fill="#1F2A22"/>
  <circle cx="656" cy="656" r="6.12" fill="#1F2A22"/>
  <circle cx="674" cy="656" r="6.12" fill="#1F2A22"/>
  <circle cx="710" cy="656" r="6.12" fill="#1F2A22"/>
  <circle cx="728" cy="656" r="6.12" fill="#1F2A22"/>
  <circle cx="836" cy="656" r="6.12" fill="#1F2A22"/>
  <circle cx="314" cy="674" r="6.12" fill="#1F2A22"/>
  <circle cx="368" cy="674" r="6.12" fill="#1F2A22"/>
  <circle cx="440" cy="674" r="6.12" fill="#1F2A22"/>
  <circle cx="494" cy="674" r="6.12" fill="#1F2A22"/>
  <circle cx="566" cy="674" r="6.12" fill="#1F2A22"/>
  <circle cx="584" cy="674" r="6.12" fill="#1F2A22"/>
  <circle cx="602" cy="674" r="6.12" fill="#1F2A22"/>
  <circle cx="620" cy="674" r="6.12" fill="#1F2A22"/>
  <circle cx="692" cy="674" r="6.12" fill="#1F2A22"/>
  <circle cx="710" cy="674" r="6.12" fill="#1F2A22"/>
  <circle cx="728" cy="674" r="6.12" fill="#1F2A22"/>
  <circle cx="746" cy="674" r="6.12" fill="#1F2A22"/>
  <circle cx="782" cy="674" r="6.12" fill="#1F2A22"/>
  <circle cx="818" cy="674" r="6.12" fill="#1F2A22"/>
  <circle cx="836" cy="674" r="6.12" fill="#1F2A22"/>
  <circle cx="188" cy="692" r="6.12" fill="#1F2A22"/>
  <circle cx="206" cy="692" r="6.12" fill="#1F2A22"/>
  <circle cx="242" cy="692" r="6.12" fill="#1F2A22"/>
  <circle cx="296" cy="692" r="6.12" fill="#1F2A22"/>
  <circle cx="314" cy="692" r="6.12" fill="#1F2A22"/>
  <circle cx="350" cy="692" r="6.12" fill="#1F2A22"/>
  <circle cx="404" cy="692" r="6.12" fill="#1F2A22"/>
  <circle cx="422" cy="692" r="6.12" fill="#1F2A22"/>
  <circle cx="440" cy="692" r="6.12" fill="#1F2A22"/>
  <circle cx="458" cy="692" r="6.12" fill="#1F2A22"/>
  <circle cx="530" cy="692" r="6.12" fill="#1F2A22"/>
  <circle cx="548" cy="692" r="6.12" fill="#1F2A22"/>
  <circle cx="692" cy="692" r="6.12" fill="#1F2A22"/>
  <circle cx="710" cy="692" r="6.12" fill="#1F2A22"/>
  <circle cx="728" cy="692" r="6.12" fill="#1F2A22"/>
  <circle cx="746" cy="692" r="6.12" fill="#1F2A22"/>
  <circle cx="764" cy="692" r="6.12" fill="#1F2A22"/>
  <circle cx="782" cy="692" r="6.12" fill="#1F2A22"/>
  <circle cx="836" cy="692" r="6.12" fill="#1F2A22"/>
  <circle cx="332" cy="710" r="6.12" fill="#1F2A22"/>
  <circle cx="386" cy="710" r="6.12" fill="#1F2A22"/>
  <circle cx="422" cy="710" r="6.12" fill="#1F2A22"/>
  <circle cx="476" cy="710" r="6.12" fill="#1F2A22"/>
  <circle cx="494" cy="710" r="6.12" fill="#1F2A22"/>
  <circle cx="512" cy="710" r="6.12" fill="#1F2A22"/>
  <circle cx="530" cy="710" r="6.12" fill="#1F2A22"/>
  <circle cx="548" cy="710" r="6.12" fill="#1F2A22"/>
  <circle cx="566" cy="710" r="6.12" fill="#1F2A22"/>
  <circle cx="602" cy="710" r="6.12" fill="#1F2A22"/>
  <circle cx="620" cy="710" r="6.12" fill="#1F2A22"/>
  <circle cx="638" cy="710" r="6.12" fill="#1F2A22"/>
  <circle cx="692" cy="710" r="6.12" fill="#1F2A22"/>
  <circle cx="764" cy="710" r="6.12" fill="#1F2A22"/>
  <circle cx="782" cy="710" r="6.12" fill="#1F2A22"/>
  <circle cx="818" cy="710" r="6.12" fill="#1F2A22"/>
  <circle cx="836" cy="710" r="6.12" fill="#1F2A22"/>
  <circle cx="332" cy="728" r="6.12" fill="#1F2A22"/>
  <circle cx="386" cy="728" r="6.12" fill="#1F2A22"/>
  <circle cx="404" cy="728" r="6.12" fill="#1F2A22"/>
  <circle cx="422" cy="728" r="6.12" fill="#1F2A22"/>
  <circle cx="440" cy="728" r="6.12" fill="#1F2A22"/>
  <circle cx="458" cy="728" r="6.12" fill="#1F2A22"/>
  <circle cx="494" cy="728" r="6.12" fill="#1F2A22"/>
  <circle cx="566" cy="728" r="6.12" fill="#1F2A22"/>
  <circle cx="584" cy="728" r="6.12" fill="#1F2A22"/>
  <circle cx="602" cy="728" r="6.12" fill="#1F2A22"/>
  <circle cx="692" cy="728" r="6.12" fill="#1F2A22"/>
  <circle cx="728" cy="728" r="6.12" fill="#1F2A22"/>
  <circle cx="764" cy="728" r="6.12" fill="#1F2A22"/>
  <circle cx="782" cy="728" r="6.12" fill="#1F2A22"/>
  <circle cx="800" cy="728" r="6.12" fill="#1F2A22"/>
  <circle cx="836" cy="728" r="6.12" fill="#1F2A22"/>
  <circle cx="332" cy="746" r="6.12" fill="#1F2A22"/>
  <circle cx="350" cy="746" r="6.12" fill="#1F2A22"/>
  <circle cx="404" cy="746" r="6.12" fill="#1F2A22"/>
  <circle cx="422" cy="746" r="6.12" fill="#1F2A22"/>
  <circle cx="440" cy="746" r="6.12" fill="#1F2A22"/>
  <circle cx="458" cy="746" r="6.12" fill="#1F2A22"/>
  <circle cx="494" cy="746" r="6.12" fill="#1F2A22"/>
  <circle cx="512" cy="746" r="6.12" fill="#1F2A22"/>
  <circle cx="566" cy="746" r="6.12" fill="#1F2A22"/>
  <circle cx="620" cy="746" r="6.12" fill="#1F2A22"/>
  <circle cx="656" cy="746" r="6.12" fill="#1F2A22"/>
  <circle cx="674" cy="746" r="6.12" fill="#1F2A22"/>
  <circle cx="692" cy="746" r="6.12" fill="#1F2A22"/>
  <circle cx="764" cy="746" r="6.12" fill="#1F2A22"/>
  <circle cx="782" cy="746" r="6.12" fill="#1F2A22"/>
  <circle cx="422" cy="764" r="6.12" fill="#1F2A22"/>
  <circle cx="440" cy="764" r="6.12" fill="#1F2A22"/>
  <circle cx="458" cy="764" r="6.12" fill="#1F2A22"/>
  <circle cx="530" cy="764" r="6.12" fill="#1F2A22"/>
  <circle cx="548" cy="764" r="6.12" fill="#1F2A22"/>
  <circle cx="674" cy="764" r="6.12" fill="#1F2A22"/>
  <circle cx="692" cy="764" r="6.12" fill="#1F2A22"/>
  <circle cx="710" cy="764" r="6.12" fill="#1F2A22"/>
  <circle cx="728" cy="764" r="6.12" fill="#1F2A22"/>
  <circle cx="746" cy="764" r="6.12" fill="#1F2A22"/>
  <circle cx="764" cy="764" r="6.12" fill="#1F2A22"/>
  <circle cx="818" cy="764" r="6.12" fill="#1F2A22"/>
  <circle cx="350" cy="782" r="6.12" fill="#1F2A22"/>
  <circle cx="422" cy="782" r="6.12" fill="#1F2A22"/>
  <circle cx="440" cy="782" r="6.12" fill="#1F2A22"/>
  <circle cx="458" cy="782" r="6.12" fill="#1F2A22"/>
  <circle cx="512" cy="782" r="6.12" fill="#1F2A22"/>
  <circle cx="548" cy="782" r="6.12" fill="#1F2A22"/>
  <circle cx="584" cy="782" r="6.12" fill="#1F2A22"/>
  <circle cx="638" cy="782" r="6.12" fill="#1F2A22"/>
  <circle cx="656" cy="782" r="6.12" fill="#1F2A22"/>
  <circle cx="674" cy="782" r="6.12" fill="#1F2A22"/>
  <circle cx="764" cy="782" r="6.12" fill="#1F2A22"/>
  <circle cx="782" cy="782" r="6.12" fill="#1F2A22"/>
  <circle cx="836" cy="782" r="6.12" fill="#1F2A22"/>
  <circle cx="332" cy="800" r="6.12" fill="#1F2A22"/>
  <circle cx="368" cy="800" r="6.12" fill="#1F2A22"/>
  <circle cx="404" cy="800" r="6.12" fill="#1F2A22"/>
  <circle cx="422" cy="800" r="6.12" fill="#1F2A22"/>
  <circle cx="458" cy="800" r="6.12" fill="#1F2A22"/>
  <circle cx="476" cy="800" r="6.12" fill="#1F2A22"/>
  <circle cx="494" cy="800" r="6.12" fill="#1F2A22"/>
  <circle cx="512" cy="800" r="6.12" fill="#1F2A22"/>
  <circle cx="530" cy="800" r="6.12" fill="#1F2A22"/>
  <circle cx="584" cy="800" r="6.12" fill="#1F2A22"/>
  <circle cx="602" cy="800" r="6.12" fill="#1F2A22"/>
  <circle cx="638" cy="800" r="6.12" fill="#1F2A22"/>
  <circle cx="656" cy="800" r="6.12" fill="#1F2A22"/>
  <circle cx="764" cy="800" r="6.12" fill="#1F2A22"/>
  <circle cx="800" cy="800" r="6.12" fill="#1F2A22"/>
  <circle cx="818" cy="800" r="6.12" fill="#1F2A22"/>
  <circle cx="836" cy="800" r="6.12" fill="#1F2A22"/>
  <circle cx="386" cy="818" r="6.12" fill="#1F2A22"/>
  <circle cx="404" cy="818" r="6.12" fill="#1F2A22"/>
  <circle cx="458" cy="818" r="6.12" fill="#1F2A22"/>
  <circle cx="494" cy="818" r="6.12" fill="#1F2A22"/>
  <circle cx="530" cy="818" r="6.12" fill="#1F2A22"/>
  <circle cx="548" cy="818" r="6.12" fill="#1F2A22"/>
  <circle cx="566" cy="818" r="6.12" fill="#1F2A22"/>
  <circle cx="656" cy="818" r="6.12" fill="#1F2A22"/>
  <circle cx="674" cy="818" r="6.12" fill="#1F2A22"/>
  <circle cx="692" cy="818" r="6.12" fill="#1F2A22"/>
  <circle cx="710" cy="818" r="6.12" fill="#1F2A22"/>
  <circle cx="728" cy="818" r="6.12" fill="#1F2A22"/>
  <circle cx="782" cy="818" r="6.12" fill="#1F2A22"/>
  <circle cx="404" cy="836" r="6.12" fill="#1F2A22"/>
  <circle cx="422" cy="836" r="6.12" fill="#1F2A22"/>
  <circle cx="458" cy="836" r="6.12" fill="#1F2A22"/>
  <circle cx="476" cy="836" r="6.12" fill="#1F2A22"/>
  <circle cx="548" cy="836" r="6.12" fill="#1F2A22"/>
  <circle cx="584" cy="836" r="6.12" fill="#1F2A22"/>
  <circle cx="602" cy="836" r="6.12" fill="#1F2A22"/>
  <circle cx="620" cy="836" r="6.12" fill="#1F2A22"/>
  <circle cx="656" cy="836" r="6.12" fill="#1F2A22"/>
  <circle cx="692" cy="836" r="6.12" fill="#1F2A22"/>
  <circle cx="728" cy="836" r="6.12" fill="#1F2A22"/>
  <circle cx="746" cy="836" r="6.12" fill="#1F2A22"/>
  <circle cx="836" cy="836" r="6.12" fill="#1F2A22"/>
<rect x="179" y="179" width="126" height="126" rx="39.6" fill="#1F2A22"/>
<rect x="197" y="197" width="90" height="90" rx="28.8" fill="#FFFFFF"/>
<rect x="215" y="215" width="54" height="54" rx="20.7" fill="#07C160"/>
<circle cx="242" cy="242" r="13.5" fill="#FFFFFF"/>
<rect x="719" y="179" width="126" height="126" rx="39.6" fill="#1F2A22"/>
<rect x="737" y="197" width="90" height="90" rx="28.8" fill="#FFFFFF"/>
<rect x="755" y="215" width="54" height="54" rx="20.7" fill="#07C160"/>
<circle cx="782" cy="242" r="13.5" fill="#FFFFFF"/>
<rect x="179" y="719" width="126" height="126" rx="39.6" fill="#1F2A22"/>
<rect x="197" y="737" width="90" height="90" rx="28.8" fill="#FFFFFF"/>
<rect x="215" y="755" width="54" height="54" rx="20.7" fill="#07C160"/>
<circle cx="242" cy="782" r="13.5" fill="#FFFFFF"/>
  <circle cx="512" cy="512" r="80.6" fill="#FFFFFF"/>
  <rect x="447" y="447" width="130" height="130" rx="36.400000000000006" fill="#07C160"/>
  <circle cx="501.6" cy="505.5" r="23.4" fill="#FFFFFF"/>
  <circle cx="528.9" cy="495.1" r="16.900000000000002" fill="#FFFFFF"/>
  <circle cx="493.8" cy="501.6" r="2.34" fill="#07C160"/>
  <circle cx="522.4" cy="491.2" r="1.95" fill="#07C160"/>
  <path d="M 483.4 530.2 L 492.5 518.5 L 500.3 531.5 Z" fill="#FFFFFF"/>
  <path d="M 522.4 519.8 L 530.2 509.4 L 535.4 522.4 Z" fill="#FFFFFF"/>
</svg>