<svg width="1600" height="1200" viewBox="0 0 1600 1200" fill="none" xmlns="http://www.w3.org/2000/svg">
  <rect width="1600" height="1200" rx="32" fill="url(#paint0_linear_studio)" />
  <g opacity="0.95" filter="url(#filter0_f_studio)">
    <ellipse cx="267" cy="925" rx="267" ry="186" fill="#F8EFE6" />
    <ellipse cx="1310" cy="250" rx="240" ry="170" fill="#EAC7AF" />
  </g>
  <rect x="128" y="158" width="1344" height="864" rx="28" fill="#F6EFE6" />
  <path d="M262 1022H1337V565C1337 336 1151 150 922 150H678C448 150 262 336 262 565V1022Z" fill="url(#paint1_linear_studio)" />
  <path d="M339 1022H1260V596C1260 405 1105 250 914 250H686C494 250 339 405 339 596V1022Z" fill="#F2E4D7" />
  <path d="M420 1022H1182V630C1182 480 1060 358 910 358H691C542 358 420 480 420 630V1022Z" fill="#F9F3EC" />
  <path d="M126 932H1472V1022H126V932Z" fill="#C69A7C" />
  <path d="M126 1022H1472V1102H126V1022Z" fill="#B07C61" />
  <rect x="447" y="846" width="706" height="114" rx="26" fill="#D7A88A" />
  <rect x="470" y="863" width="660" height="80" rx="20" fill="#EBC7AE" />
  <rect x="572" y="896" width="460" height="24" rx="12" fill="#F6EFE6" opacity="0.62" />
  <g opacity="0.9">
    <rect x="1031" y="559" width="116" height="195" rx="52" fill="#E6C0A6" />
    <rect x="1046" y="575" width="85" height="152" rx="38" fill="#F7EDE3" />
    <rect x="970" y="611" width="50" height="143" rx="25" fill="#D7A889" />
    <rect x="1149" y="611" width="50" height="143" rx="25" fill="#D7A889" />
  </g>
  <g opacity="0.82">
    <rect x="545" y="442" width="94" height="232" rx="47" fill="#ECD1BC" />
    <rect x="561" y="462" width="62" height="192" rx="31" fill="#FCF7F2" />
    <rect x="662" y="455" width="74" height="14" rx="7" fill="#E0B89B" />
    <rect x="694" y="470" width="14" height="112" rx="7" fill="#E0B89B" />
  </g>
  <circle cx="733" cy="506" r="69" fill="#EFD7C4" />
  <circle cx="733" cy="506" r="49" fill="#FFF7EF" />
  <path d="M653 111C714 98 792 92 855 111" stroke="#FFF7EE" stroke-width="3" stroke-linecap="round" opacity="0.8" />
  <defs>
    <filter id="filter0_f_studio" x="-80" y="0" width="1670" height="1191" filterUnits="userSpaceOnUse" color-interpolation-filters="sRGB">
      <feFlood flood-opacity="0" result="BackgroundImageFix" />
      <feBlend mode="normal" in="SourceGraphic" in2="BackgroundImageFix" result="shape" />
      <feGaussianBlur stdDeviation="40" result="effect1_foregroundBlur_studio" />
    </filter>
    <linearGradient id="paint0_linear_studio" x1="174" y1="95" x2="1364" y2="1078" gradientUnits="userSpaceOnUse">
      <stop stop-color="#F9F2EA" />
      <stop offset="0.52" stop-color="#F2E8DD" />
      <stop offset="1" stop-color="#D3AF95" />
    </linearGradient>
    <linearGradient id="paint1_linear_studio" x1="514" y1="188" x2="1049" y2="1022" gradientUnits="userSpaceOnUse">
      <stop stop-color="#EEDAC9" />
      <stop offset="1" stop-color="#E3C2A8" />
    </linearGradient>
  </defs>
</svg>
